<svg width="48" height="48" viewBox="0 0 48 48" fill="none" xmlns="http://www.w3.org/2000/svg">
<g clip-path="url(#clip0)">
<path d="M44.9779 17.0537V35.3426C44.9779 35.4582 44.974 35.5738 44.9662 35.6894C44.0562 37.3185 42.961 38.8299 41.7101 40.1965L29.1537 47.4445C27.4932 47.8089 25.7691 48 24 48C22.2308 48 20.5058 47.8089 18.8453 47.4445L8.52626 41.4886L6.29079 40.1975C5.03885 38.831 3.94366 37.3184 3.03363 35.6894C3.02576 35.5738 3.02191 35.4582 3.02191 35.3426V17.0537C3.02191 15.218 4.00244 13.5222 5.59038 12.6034L21.4313 3.45891C23.0212 2.54006 24.9784 2.54006 26.5683 3.45891L39.2393 10.7745L42.4093 12.6034C43.9973 13.5223 44.9779 15.218 44.9779 17.0537Z" fill="#004284"/>
<path d="M44.3284 14.5557L4.27591 37.6761C3.83022 37.0364 3.41584 36.3732 3.03381 35.6894C3.03381 35.6885 3.03381 35.6885 3.03381 35.6885C3.02594 35.5738 3.02209 35.4582 3.02209 35.3427V17.0537C3.02209 15.218 4.00169 13.5222 5.59056 12.6034L21.4315 3.45891C23.0204 2.54006 24.9776 2.54006 26.5675 3.45891L39.2395 10.7745L42.4095 12.6034C43.2274 13.0765 43.8837 13.7573 44.3284 14.5557Z" fill="#6399D4"/>
<path d="M44.9779 17.0537V35.3426C44.9779 35.4582 44.974 35.5738 44.9662 35.6884C44.9662 35.6893 44.9662 35.6893 44.9662 35.6893C44.6009 36.3427 44.2061 36.9774 43.7838 37.5907L24.1038 26.2303L44.3285 14.5555C44.7477 15.3081 44.9779 16.1643 44.9779 17.0537Z" fill="#00579E"/>
<path d="M30.1559 29.7233C28.9555 31.8853 26.6498 33.348 24.0013 33.348C20.1157 33.348 16.9658 30.1981 16.9658 26.3125C16.9658 22.4268 20.1157 19.2769 24.0013 19.2769C26.5986 19.2769 28.8661 20.684 30.0856 22.7771L36.3062 19.186C33.8468 14.9457 29.2561 12.0947 24.0013 12.0947C16.1494 12.0947 9.78375 18.4589 9.78375 26.3123C9.78375 34.1642 16.1495 40.5299 24.0013 40.5299C29.3073 40.5299 33.9346 37.6233 36.3765 33.3141L30.1559 29.7233Z" fill="#F2F2F2"/>
<path d="M37.9596 25.2897H36.3433V23.6733H34.7759V25.2897H33.1596V26.857H34.7759V28.4733H36.3433V26.857H37.9596V25.2897Z" fill="#F2F2F2"/>
<path d="M43.8371 25.2897H42.2208V23.6733H40.6535V25.2897H39.0371V26.857H40.6535V28.4733H42.2208V26.857H43.8371V25.2897Z" fill="#F2F2F2"/>
</g>
<defs>
<clipPath id="clip0">
<rect width="48" height="48" fill="white"/>
</clipPath>
</defs>
</svg>
