<svg width="48" height="48" viewBox="0 0 48 48" fill="none" xmlns="http://www.w3.org/2000/svg">
<path d="M24 48C37.2548 48 48 37.2548 48 24C48 10.7452 37.2548 0 24 0C10.7452 0 0 10.7452 0 24C0 37.2548 10.7452 48 24 48Z" fill="#8C50D7"/>
<path d="M28.8889 43.1112C15.6341 43.1112 4.88887 32.3659 4.88887 19.1111C4.88887 13.7306 6.65972 8.76377 9.64997 4.76111C3.79237 9.13736 0 16.1257 0 24C0 37.2548 10.7452 48 24 48C31.8743 48 38.8627 44.2077 43.2389 38.3501C39.2362 41.3404 34.2695 43.1112 28.8889 43.1112Z" fill="#733CB9"/>
<path d="M27.5599 7.4501C27.4488 7.4501 27.3351 7.43923 27.2214 7.41757C26.1676 7.21404 25.0842 7.1111 24 7.1111C23.0183 7.1111 22.2222 6.31507 22.2222 5.33332C22.2222 4.35157 23.0183 3.55554 24 3.55554C25.309 3.55554 26.6198 3.68014 27.895 3.92623C28.8594 4.11242 29.4897 5.04467 29.3039 6.0087C29.1398 6.85882 28.395 7.4501 27.5599 7.4501Z" fill="#AA6EFF"/>
<path d="M42.4748 23.1114C41.6049 23.1114 40.8445 22.4717 40.7178 21.585C39.9982 16.5554 37.0772 12.1588 32.704 9.52284C31.8629 9.01584 31.5921 7.92338 32.0991 7.08272C32.6052 6.24075 33.6972 5.97028 34.5392 6.47775C39.8308 9.66741 43.3657 14.9903 44.2371 21.0816C44.3768 22.0534 43.7015 22.954 42.7293 23.0932C42.6442 23.1053 42.559 23.1114 42.4748 23.1114Z" fill="#AA6EFF"/>
<path d="M35.5555 23.3333C36.1692 23.3333 36.6667 22.8359 36.6667 22.2222C36.6667 21.6085 36.1692 21.1111 35.5555 21.1111H34.5997L34.8672 19.7735C34.9879 19.1719 34.5972 18.5863 33.9956 18.4661C33.3879 18.345 32.8089 18.7356 32.6883 19.3377L32.3336 21.1112H30.1552L30.4227 19.7736C30.5434 19.172 30.1527 18.5864 29.5511 18.4662C28.9444 18.3451 28.3644 18.7357 28.2438 19.3378L27.8891 21.1113H26.6665C26.0528 21.1113 25.5554 21.6087 25.5554 22.2224C25.5554 22.8361 26.0528 23.3335 26.6665 23.3335H27.4447L27.178 24.6668H25.7777C25.164 24.6668 24.6666 25.1643 24.6666 25.778C24.6666 26.3916 25.164 26.8891 25.7777 26.8891H26.7336L26.466 28.2267C26.3453 28.8283 26.736 29.4139 27.3376 29.5341C27.4114 29.5489 27.4842 29.5562 27.5564 29.5562C28.0755 29.5562 28.5391 29.1907 28.6449 28.6626L28.9996 26.8891H31.1781L30.9105 28.2267C30.7898 28.8283 31.1805 29.4139 31.7821 29.5341C31.8559 29.5489 31.9287 29.5562 32.0009 29.5562C32.52 29.5562 32.9836 29.1907 33.0894 28.6626L33.4441 26.8891H34.6667C35.2804 26.8891 35.7778 26.3916 35.7778 25.778C35.7778 25.1643 35.2804 24.6668 34.6667 24.6668H33.8886L34.1552 23.3335H35.5555V23.3333ZM31.6225 24.6666H29.4441L29.7107 23.3333H31.8892L31.6225 24.6666Z" fill="white"/>
<path d="M18.6667 18C19.7144 18 20.724 18.3181 21.5859 18.9196C22.0911 19.2721 22.7829 19.148 23.1337 18.6444C23.4843 18.1414 23.3611 17.4486 22.8584 17.0975C21.6207 16.2339 20.1718 15.7777 18.6667 15.7777C14.6232 15.7777 11.3334 19.0676 11.3334 23.111V24.8888C11.3334 28.9323 14.6232 32.2221 18.6667 32.2221C20.1719 32.2221 21.6207 31.766 22.8585 30.9022C23.3611 30.5511 23.4844 29.8583 23.1338 29.3553C22.7822 28.8528 22.0912 28.7282 21.586 29.0801C20.7239 29.6818 19.7144 29.9999 18.6666 29.9999C15.848 29.9999 13.5554 27.7068 13.5554 24.8887V23.1109C13.5556 20.293 15.8482 18 18.6667 18Z" fill="white"/>
</svg>
