	<svg
											width="48"
											height="48"
											viewBox="0 0 48 48"
											fill="none"
											xmlns="http://www.w3.org/2000/svg"
										>
											<path
												d="M48 24C48 31.7172 44.3569 38.5841 38.6968 42.9747C34.6364 46.1251 29.5376 48 24 48C18.4624 48 13.3636 46.1251 9.30319 42.9747C3.64313 38.5841 0 31.7172 0 24C0 10.7452 10.7452 0 24 0C37.2548 0 48 10.7452 48 24Z"
												fill="#F2F2F2"
											/>
											<path
												d="M41.4368 11.2007L38.6968 42.9747C34.6364 46.1251 29.5376 48 24 48C18.4624 48 13.3636 46.1251 9.30319 42.9747L6.56325 11.2007H41.4368Z"
												fill="#006BC0"
											/>
											<path
												d="M23.9997 14.188V47.3716L35.4627 44.1354L38.0198 14.188H23.9997Z"
												fill="#0096DC"
											/>
											<path
												d="M34.1284 27.1674H25.8609L34.4999 22.7708L34.8732 18.3511H13.1262L13.5068 22.8572H22.2365L13.8605 27.0453L14.2502 31.6614H29.1915L28.7018 37.1592L23.9997 38.4327L19.1018 37.0612L18.9793 33.6327H14.4167L14.9874 40.3919L23.9997 42.9388L33.0119 40.3919L34.1287 27.1667L34.1284 27.1674Z"
												fill="white"
											/>
											<path
												d="M15.5018 6.30211V3.16739H20.0078V1.46948H13.8691V8.00001H20.0078V6.30211H15.5018Z"
												fill="#222123"
											/>
											<path
												d="M22.6446 4.02455V3.2408H27.1263V3.16739V1.46948H20.9874V5.51836H25.3874V6.30211H20.9874V8.00001H27.1263V6.30211V4.02455H22.6446Z"
												fill="#222123"
											/>
											<path
												d="M29.6486 4.02455V3.2408H34.1303V3.16739V1.46948H27.9915V5.51836H32.3915V6.30211H27.9915V8.00001H34.1303V6.30211V4.02455H29.6486Z"
												fill="#222123"
											/>
										</svg>