<svg
											width="48"
											height="48"
											viewBox="0 0 48 48"
											fill="none"
											xmlns="http://www.w3.org/2000/svg"
										>
											<g clip-path="url(#clip0)">
												<path
													d="M7.15999 42.392H35.678L34.316 37.982C34.518 38.158 46 48 46 48V4.95C45.864 2.274 43.56 0 40.704 0L7.17 0.006C4.316 0.006 2 2.284 2 4.96V37.44C2 40.262 4.312 42.392 7.15999 42.392V42.392ZM28.256 11.366L28.19 11.39L28.214 11.366H28.256ZM12.994 13.904C16.66 11.236 20.058 11.364 20.058 11.364L20.332 11.634C15.846 12.704 13.812 14.708 13.812 14.708C14.02 14.664 23.078 9.438 34.054 14.84C34.054 14.84 32.016 12.966 27.806 11.766L28.178 11.4C28.76 11.402 31.84 11.51 35.136 13.92C35.136 13.92 38.824 20.22 38.824 27.96C38.702 27.812 36.536 31.292 30.962 31.412C30.962 31.412 30.018 30.344 29.346 29.412C32.606 28.476 33.826 26.604 33.826 26.604C27.48 30.6 21.918 29.976 15.264 27.276C15.202 27.276 15.174 27.248 15.142 27.216V27.204C15.11 27.174 15.082 27.144 15.02 27.144H14.9C14.492 26.876 14.22 26.744 14.22 26.744C14.22 26.744 15.438 28.616 18.568 29.552C17.746 30.49 16.932 31.556 16.932 31.556C11.36 31.424 9.32799 27.944 9.32799 27.944C9.32799 20.192 12.994 13.904 12.994 13.904V13.904Z"
													fill="#5C6BC0"
												/>
												<path
													d="M28.616 25.542C30.038 25.542 31.196 24.342 31.196 22.862C31.196 21.392 30.044 20.192 28.616 20.192V20.198C27.2 20.198 26.04 21.394 26.036 22.874C26.036 24.342 27.194 25.542 28.616 25.542Z"
													fill="#5C6BC0"
												/>
												<path
													d="M19.38 25.542C20.802 25.542 21.96 24.342 21.96 22.862C21.96 21.392 20.81 20.192 19.388 20.192L19.38 20.198C17.958 20.198 16.8 21.394 16.8 22.874C16.8 24.342 17.958 25.542 19.38 25.542V25.542Z"
													fill="#5C6BC0"
												/>
											</g>
											<defs>
												<clipPath id="clip0">
													<rect width="48" height="48" fill="white" />
												</clipPath>
											</defs>
										</svg>