
<svg width="82" height="20" viewBox="0 0 82 20" fill="none" xmlns="http://www.w3.org/2000/svg">
<path d="M25.4395 19.196V1.25583H26.4134V4.07803C26.5284 3.95301 26.6347 3.8202 26.7314 3.68054C27.1293 2.85449 27.7545 2.15899 28.5336 1.67557C29.3127 1.19215 30.2135 0.940834 31.1303 0.951082C33.3497 0.884833 35.1516 1.70632 36.2116 3.68054C36.8861 4.90695 37.2572 6.27696 37.2941 7.6761C37.331 9.07525 37.0325 10.4629 36.4236 11.7231C35.4365 13.9359 32.9985 15.0356 30.3883 14.6315C29.5761 14.5623 28.794 14.2908 28.1136 13.8418C27.4332 13.3928 26.876 12.7806 26.4929 12.061V19.196H25.4395ZM26.4134 7.60247C26.4995 8.47695 26.5327 9.09969 26.632 9.70918C27.0163 12.1074 28.434 13.5317 30.66 13.7901C31.7051 13.9619 32.7776 13.766 33.6945 13.2356C34.6114 12.7053 35.316 11.8734 35.6882 10.8818C36.116 9.86179 36.3219 8.76247 36.2922 7.65681C36.2625 6.55115 35.9979 5.46446 35.516 4.4689C35.1186 3.5801 34.4429 2.84473 33.5907 2.37385C32.7386 1.90296 31.7564 1.72214 30.7925 1.85869C29.8874 1.92427 29.0253 2.27021 28.326 2.84843C27.6266 3.42665 27.1249 4.20841 26.8904 5.08501C26.6829 5.91425 26.5236 6.75481 26.4134 7.60247V7.60247Z" fill="#3B4854"/>
<path d="M57.1595 10.0403C57.0119 11.3034 56.4106 12.4699 55.4674 13.3229C54.5243 14.176 53.3034 14.6574 52.0318 14.6777C47.9509 14.8831 46.0363 12.1735 45.7316 9.04655C45.52 7.34845 45.7958 5.62522 46.5265 4.07789C47.0355 3.01651 47.8689 2.14462 48.9063 1.58842C49.9437 1.03221 51.1311 0.820551 52.2968 0.984071C53.405 1.078 54.4556 1.51817 55.2998 2.24225C56.1439 2.96634 56.7389 3.93764 57.0005 5.01862C57.2078 6.00314 57.3604 6.9984 57.4576 7.99982H46.7319C46.5332 10.8353 48.0569 13.1142 50.2166 13.6641C52.9063 14.3266 55.2051 13.1606 56.0399 10.6034C56.2254 9.94754 56.5632 9.85479 57.1595 10.0403ZM46.7319 7.09221H56.3181C56.2585 4.07126 54.377 1.88505 51.8264 1.85193C48.938 1.80555 46.8578 3.91227 46.7319 7.09221Z" fill="#3B4854"/>
<path d="M59.1337 10.1066H60.0744C60.1092 10.7988 60.3341 11.4681 60.7245 12.0408C61.1149 12.6135 61.6556 13.0674 62.2872 13.3528C63.0803 13.7097 63.9437 13.8832 64.8131 13.8602C65.6826 13.8373 66.5356 13.6186 67.3088 13.2203C67.7302 13.0304 68.0831 12.7157 68.3201 12.3189C68.557 11.922 68.6665 11.462 68.6338 11.001C68.658 10.5563 68.5366 10.1159 68.2879 9.74647C68.0393 9.37705 67.6769 9.0988 67.2558 8.9539C66.2223 8.56966 65.1226 8.35766 64.0693 8.01979C62.9733 7.70768 61.9016 7.31576 60.8628 6.84719C59.1668 6.01908 59.0608 2.79276 60.9821 1.77253C61.9658 1.21738 63.0729 0.917449 64.2024 0.900091C65.3318 0.882733 66.4476 1.1485 67.4479 1.67315C68.0539 2.00806 68.5434 2.51973 68.8512 3.13995C69.1589 3.76017 69.2703 4.45946 69.1704 5.14459H68.3622C68.3622 5.10484 68.2893 5.07172 68.2893 5.03197C68.1899 2.45489 66.0302 1.6599 63.7115 1.88515C63.0193 1.97053 62.347 2.17446 61.724 2.48801C61.3498 2.65917 61.0379 2.9423 60.8314 3.2983C60.6249 3.6543 60.534 4.06562 60.5713 4.47548C60.5725 4.88552 60.7004 5.28517 60.9376 5.61964C61.1748 5.9541 61.5097 6.20701 61.8963 6.34369C62.9165 6.71469 63.9831 6.95318 65.0299 7.24468C65.8712 7.47655 66.7457 7.62892 67.5606 7.90717C68.1357 8.0957 68.64 8.45445 69.0068 8.93594C69.3735 9.41743 69.5853 9.99894 69.6143 10.6035C69.7126 11.2659 69.5997 11.9424 69.2917 12.537C68.9837 13.1317 68.4962 13.6141 67.8984 13.9159C65.6857 15.168 62.042 14.8368 60.4189 13.2534C60.0076 12.8397 59.6822 12.3487 59.4616 11.8086C59.2411 11.2685 59.1296 10.69 59.1337 10.1066Z" fill="#3B4854"/>
<path d="M81.5391 5.14472H80.658C80.658 5.02548 80.6116 4.91948 80.5984 4.8201C80.5841 4.15964 80.3433 3.52414 79.9164 3.02002C79.4895 2.51589 78.9023 2.17376 78.2532 2.0509C77.0284 1.69951 75.722 1.76239 74.5366 2.22977C74.0681 2.36411 73.6556 2.64637 73.3607 3.03442C73.0658 3.42247 72.9043 3.89548 72.9003 4.38286C72.8838 4.86151 73.033 5.33118 73.3227 5.71258C73.6123 6.09398 74.0247 6.36374 74.4902 6.47632C75.8152 6.88707 77.1733 7.13881 78.5182 7.50981C78.954 7.61441 79.3832 7.74493 79.8034 7.90068C80.4309 8.1252 80.9762 8.5338 81.3678 9.07309C81.7594 9.61238 81.9793 10.2573 81.9986 10.9235C82.0179 11.5897 81.8358 12.2463 81.4761 12.8073C81.1164 13.3684 80.5958 13.8079 79.9823 14.0684C79.0474 14.493 78.0341 14.7176 77.0074 14.7278C75.9807 14.7381 74.9631 14.5338 74.0199 14.1281C73.2442 13.7935 72.5897 13.2294 72.1444 12.5116C71.699 11.7939 71.4842 10.9569 71.5289 10.1134H71.8999H72.3902C72.5495 10.8821 72.8938 11.6003 73.3932 12.206C73.8927 12.8116 74.5323 13.2863 75.2565 13.5891C75.9808 13.8919 76.768 14.0135 77.5499 13.9435C78.3318 13.8735 79.0848 13.6139 79.7438 13.1873C80.1452 12.9788 80.4784 12.6595 80.7039 12.2673C80.9293 11.8751 81.0376 11.4265 81.0158 10.9746C81.0357 10.5297 80.91 10.0904 80.6578 9.72338C80.4055 9.35634 80.0404 9.08158 79.6179 8.94078C78.5844 8.55654 77.4847 8.35117 76.4313 8.0133C75.3291 7.70601 74.2508 7.31852 73.205 6.85394C71.5488 6.03908 71.4163 2.83926 73.3044 1.81903C74.3004 1.24063 75.4291 0.929929 76.5807 0.917158C77.7324 0.904388 78.8677 1.18999 79.8763 1.74616C80.4531 2.09048 80.9173 2.59504 81.2126 3.19843C81.5078 3.80182 81.6212 4.47802 81.5391 5.14472V5.14472Z" fill="#3B4854"/>
<path d="M23.8297 14.3533C23.4828 14.4846 23.0999 14.4844 22.7532 14.3525C22.4066 14.2207 22.1202 13.9664 21.9482 13.6378C20.8684 12.0213 19.6759 10.4777 18.5298 8.90102L18.0329 8.23853C16.6682 10.067 15.3035 11.8226 14.058 13.6444C13.8957 13.9585 13.6248 14.2029 13.2958 14.3321C12.9667 14.4613 12.6019 14.4665 12.2693 14.3467L17.3903 7.47667L12.627 1.26916C12.9699 1.14535 13.345 1.14365 13.689 1.26435C14.033 1.38505 14.3248 1.62074 14.5151 1.93165C15.6215 3.54812 16.8471 5.09172 18.0661 6.72806C19.2917 5.10497 20.504 3.55474 21.6369 1.95152C21.8 1.64255 22.0711 1.40432 22.3984 1.28217C22.7258 1.16002 23.0867 1.16246 23.4123 1.28903L21.564 3.74024C20.7359 4.83335 19.921 5.93308 19.0598 6.99968C18.9904 7.06182 18.9349 7.13789 18.8969 7.22294C18.8589 7.30798 18.8392 7.40008 18.8392 7.49324C18.8392 7.58639 18.8589 7.67849 18.8969 7.76353C18.9349 7.84858 18.9904 7.92465 19.0598 7.98679C20.6431 10.0869 22.2132 12.1936 23.8297 14.3533V14.3533Z" fill="#3B4854"/>
<path d="M45.5725 1.20288V2.13037C44.9025 2.08642 44.2307 2.18345 43.6004 2.41521C42.9702 2.64697 42.3956 3.0083 41.9137 3.47588C41.4317 3.94346 41.0532 4.5069 40.8025 5.12983C40.5518 5.75276 40.4345 6.42133 40.4581 7.0924C40.4581 9.2742 40.4581 11.456 40.4581 13.6378C40.4581 13.8697 40.4581 14.1015 40.4581 14.3798H39.5108V1.25588H40.4383V3.94558C41.5844 1.98462 43.3532 1.25588 45.5725 1.20288V1.20288Z" fill="#3B4854"/>
<path d="M0 7.39048C0.139123 6.72799 0.225246 6.00588 0.417368 5.33014C1.56347 1.25584 6.23402 -0.440134 9.44708 2.08395C11.3286 3.5613 11.7989 5.65476 11.7062 8.01322H1.10636C0.934109 12.2266 3.97493 14.7706 7.86374 13.4721C8.49456 13.2465 9.05926 12.8673 9.50686 12.3688C9.95447 11.8703 10.2709 11.2682 10.4276 10.6168C10.6329 9.95431 10.9642 9.84169 11.5935 10.0338C11.4899 10.8403 11.2047 11.6128 10.7595 12.2933C10.3143 12.9737 9.7206 13.5444 9.02309 13.9624C7.87063 14.5926 6.5484 14.8423 5.24548 14.6757C3.94256 14.5091 2.72568 13.9348 1.76884 13.0349C0.822252 11.9706 0.249894 10.6257 0.139122 9.2057C0.139122 8.98045 0.0529991 8.75521 0.00662488 8.54321C0.00220829 8.15013 0 7.76589 0 7.39048ZM1.11961 7.10561H10.7058C10.6462 4.05154 8.71835 1.8852 6.14789 1.86532C3.28594 1.82558 1.23885 3.94554 1.11298 7.09236L1.11961 7.10561Z" fill="#3B4854"/>
</svg>
