<svg
											width="48"
											height="48"
											viewBox="0 0 48 48"
											fill="none"
											xmlns="http://www.w3.org/2000/svg"
										>
											<path
												d="M2.53125 0L6.68115 43.2656L24.1637 48L41.399 43.2656L45.549 0H2.53125Z"
												fill="#FD982C"
											/>
											<path d="M24.1637 0V48L41.399 43.2656L45.549 0H24.1637Z" fill="#FA502E" />
											<path
												d="M36.9536 14.9418L18.5918 14.9414L18.899 18.3003H36.8665L35.4144 37.0682L24.1483 40.3451L12.056 36.5841V28.9731H19.5677V31.24L24.1498 32.6558L28.4912 31.2389L28.8073 25.6194H12.1725L10.2946 7.71643H36.9536V14.9418Z"
												fill="white"
											/>
											<path
												d="M24.1637 7.71643H36.9536V14.9418H24.1637V7.71643Z"
												fill="#DEECF1"
											/>
											<path
												d="M28.8073 25.6194L28.4912 31.2389L24.1637 32.6514V40.3407L35.4144 37.0682L36.8665 18.3003H24.1637V25.6194H28.8073Z"
												fill="#DEECF1"
											/>
										</svg>