<svg width="120" height="120" viewBox="0 0 120 120" fill="none" xmlns="http://www.w3.org/2000/svg">
<g clip-path="url(#clip0)">
<path d="M7.50002 8.16499C-1.92998 17.96 1.97291e-05 28.365 1.97291e-05 59.975C1.97291e-05 86.225 -4.57998 112.54 19.39 118.735C26.875 120.66 93.195 120.66 100.67 118.725C110.65 116.15 118.77 108.055 119.88 93.94C120.035 91.97 120.035 28.015 119.875 26.005C118.695 10.97 109.44 2.30499 97.245 0.549988C94.45 0.144988 93.89 0.0249878 79.55 -1.21668e-05C28.685 0.0249878 17.535 -2.24001 7.50002 8.16499V8.16499Z" fill="url(#paint0_linear)"/>
<path d="M59.99 15.6949C41.835 15.6949 24.595 14.0799 18.01 30.9799C15.29 37.9599 15.685 47.0249 15.685 60.0049C15.685 71.3949 15.32 82.0999 18.01 89.0249C24.58 105.935 41.96 104.315 59.98 104.315C77.365 104.315 95.29 106.125 101.955 89.0249C104.68 81.9749 104.28 73.0449 104.28 60.0049C104.28 42.6949 105.235 31.5199 96.84 23.1299C88.34 14.6299 76.845 15.6949 59.97 15.6949H59.99ZM56.02 23.6799C93.89 23.6199 98.71 19.4099 96.05 77.8949C95.105 98.5799 79.355 96.3099 59.995 96.3099C24.695 96.3099 23.68 95.2999 23.68 59.9849C23.68 24.2599 26.48 23.6999 56.02 23.6699V23.6799ZM83.64 31.0349C80.705 31.0349 78.325 33.4149 78.325 36.3499C78.325 39.2849 80.705 41.6649 83.64 41.6649C86.575 41.6649 88.955 39.2849 88.955 36.3499C88.955 33.4149 86.575 31.0349 83.64 31.0349V31.0349ZM59.99 37.2499C47.425 37.2499 37.24 47.4399 37.24 60.0049C37.24 72.5699 47.425 82.7549 59.99 82.7549C72.555 82.7549 82.735 72.5699 82.735 60.0049C82.735 47.4399 72.555 37.2499 59.99 37.2499V37.2499ZM59.99 45.2349C79.515 45.2349 79.54 74.7749 59.99 74.7749C40.47 74.7749 40.44 45.2349 59.99 45.2349Z" fill="white"/>
</g>
<defs>
<linearGradient id="paint0_linear" x1="7.73012" y1="112.335" x2="119.257" y2="15.8099" gradientUnits="userSpaceOnUse">
<stop stop-color="#FFDD55"/>
<stop offset="0.5" stop-color="#FF543E"/>
<stop offset="1" stop-color="#C837AB"/>
</linearGradient>
<clipPath id="clip0">
<rect width="120" height="120" fill="white"/>
</clipPath>
</defs>
</svg>
