<svg width="1385" height="14" viewBox="0 0 1385 14" fill="none" xmlns="http://www.w3.org/2000/svg">
<path d="M5.29746 11.439L10.5949 10.561L17.406 9.4878C39.3527 6.17073 74.1648 6.17073 95.3547 9.58536L101.409 10.561L106.706 11.439C128.653 14.8537 163.465 14.8537 185.412 11.439L190.709 10.561L197.52 9.4878C219.467 6.17073 254.279 6.17073 275.469 9.58536L281.523 10.561L286.821 11.439C308.767 14.8537 343.579 14.8537 365.526 11.439L370.824 10.561L377.635 9.4878C399.581 6.17073 434.393 6.17073 455.583 9.58536L461.637 10.561L466.935 11.439C488.882 14.8537 523.694 14.8537 545.64 11.439L550.938 10.561L557.749 9.4878C579.696 6.17073 614.508 6.17073 635.698 9.58536L641.752 10.561L647.049 11.439C668.996 14.8537 703.808 14.8537 725.755 11.439L731.052 10.561L737.863 9.4878C759.81 6.17073 794.622 6.17073 815.812 9.58536L821.866 10.561L827.163 11.439C849.11 14.8537 883.922 14.8537 905.869 11.439L911.166 10.561L917.977 9.4878C939.924 6.17073 974.736 6.17073 995.926 9.58536L1001.98 10.561L1007.28 11.439C1029.22 14.8537 1064.04 14.8537 1085.98 11.439L1091.28 10.561L1098.09 9.4878C1120.04 6.17073 1154.85 6.17073 1176.04 9.58536L1182.09 10.561L1187.39 11.439C1209.34 14.8537 1244.15 14.8537 1266.1 11.439L1271.4 10.561L1278.21 9.4878C1300.15 6.17073 1334.96 6.17073 1356.15 9.58536L1357.67 9.78048C1360.7 10.2683 1364.48 10.4634 1369.02 10.4634C1383.4 10.4634 1390.21 7.73171 1380.37 6.17073L1356.91 2.56098C1334.96 -0.853659 1300.15 -0.853659 1278.21 2.56098L1265.34 4.5122C1243.39 7.82927 1208.58 7.82926 1187.39 4.41463L1176.04 2.56098C1154.09 -0.853659 1119.28 -0.853659 1097.34 2.56098L1085.98 4.41463C1064.04 7.82926 1029.98 7.82927 1008.03 4.5122L995.169 2.56098C973.223 -0.853659 938.411 -0.853659 916.464 2.56098L905.112 4.41463C883.166 7.82926 849.11 7.82927 827.163 4.5122L814.298 2.56098C792.352 -0.853659 757.54 -0.853659 735.593 2.56098L723.484 4.5122C701.538 7.82927 666.726 7.82926 645.536 4.41463L634.184 2.56098C612.237 -0.853659 577.425 -0.853659 555.479 2.56098L544.127 4.41463C522.18 7.82926 488.125 7.82927 466.178 4.5122L454.07 2.56098C432.123 -0.853659 397.311 -0.853659 375.364 2.56098L364.013 4.41463C342.066 7.82926 308.01 7.82927 286.064 4.5122L273.199 2.56098C251.252 -0.853659 216.44 -0.853659 194.493 2.56098L182.385 4.41463C160.438 7.82926 126.383 7.82927 104.436 4.5122L91.5708 2.56098C69.6241 -0.853659 34.812 -0.853659 12.8653 2.56098L0 4.5122L5.29746 11.439Z" fill="#5850EC"/>
</svg>
