<svg width="120" height="120" viewBox="0 0 120 120" fill="none" xmlns="http://www.w3.org/2000/svg">
<g clip-path="url(#clip0)">
<path d="M98.5364 117.946C72.8714 120.685 47.1286 120.685 21.4636 117.946C11.2299 116.853 3.14667 108.77 2.05444 98.5355C-0.684814 72.8705 -0.684814 47.1286 2.05444 21.4636C3.14667 11.2299 11.2299 3.14667 21.4636 2.05444C47.1286 -0.684814 72.8705 -0.684814 98.5355 2.05444C108.77 3.14667 116.853 11.2299 117.946 21.4636C120.685 47.1286 120.685 72.8705 117.946 98.5355C116.853 108.77 108.771 116.853 98.5364 117.946Z" fill="url(#paint0_linear)"/>
<path d="M111.419 25.8042C110.45 16.7231 103.278 9.54996 94.1959 8.58041C71.4212 6.1506 48.5788 6.1506 25.8042 8.58041C16.7231 9.54996 9.5499 16.7231 8.58035 25.8042C6.15054 48.5789 6.15054 71.4213 8.58035 94.195C9.5499 103.277 16.7231 110.45 25.8042 111.419C48.5788 113.85 71.4212 113.85 94.195 111.419C103.277 110.45 110.45 103.277 111.419 94.195C113.85 71.4213 113.85 48.5789 111.419 25.8042V25.8042Z" fill="url(#paint1_linear)"/>
<path d="M1.7981 96.0481C1.88049 96.8776 1.96564 97.707 2.05444 98.5365C3.14667 108.77 11.2299 116.853 21.4645 117.946C47.1295 120.685 72.8714 120.685 98.5364 117.946C108.771 116.853 116.853 108.77 117.946 98.5365C118.034 97.707 118.12 96.8776 118.203 96.0481H1.7981Z" fill="url(#paint2_linear)"/>
<path d="M116.652 103.962L39.213 26.522C37.4835 24.2652 34.7626 22.8086 31.7001 22.8086C26.4761 22.8086 22.2409 27.0429 22.2409 32.2669C22.2409 35.3303 23.6984 38.0512 25.9552 39.7797L103.125 116.95C109.362 114.875 114.334 110.082 116.652 103.962V103.962Z" fill="url(#paint3_linear)"/>
<path d="M39.6451 47.9307H23.7543V97.1915L46.3019 119.739C63.717 120.398 81.1441 119.802 98.5355 117.946C101.576 117.622 104.424 116.676 106.958 115.244L39.6451 47.9307Z" fill="url(#paint4_linear)"/>
<path d="M93.6118 52.0568C90.705 48.8699 86.5201 46.8704 81.8683 46.8704C74.5102 46.8704 69.7614 49.4549 66.9351 51.8545L63.8214 47.9305H49.1794V97.1914L71.7947 119.807C80.7138 119.517 89.6292 118.896 98.5364 117.945C108.771 116.853 116.853 108.77 117.946 98.5363C118.676 91.6937 119.21 84.8455 119.55 77.9955L93.6118 52.0568Z" fill="url(#paint5_linear)"/>
<path d="M23.7552 47.9307H39.6451V97.1915H23.7552V47.9307Z" fill="white"/>
<path d="M81.8683 46.8704C70.2237 46.8704 65.1086 53.3422 63.8214 55.3124V47.9305H49.1794V97.1914H65.0702V72.4475C65.0702 65.2972 68.3615 59.7354 74.6045 59.7354C80.8466 59.7354 81.8683 66.6586 81.8683 75.1721V97.1914H97.7591V62.7612C97.7591 53.9849 90.6445 46.8704 81.8683 46.8704V46.8704Z" fill="white"/>
<path d="M41.1584 32.2678C41.1584 37.4918 36.9241 41.7261 31.7001 41.7261C26.4761 41.7261 22.2409 37.4918 22.2409 32.2678C22.2409 27.0438 26.4761 22.8086 31.7001 22.8086C36.9241 22.8086 41.1584 27.0438 41.1584 32.2678Z" fill="white"/>
</g>
<defs>
<linearGradient id="paint0_linear" x1="39.8423" y1="16.8718" x2="70.1938" y2="81.8097" gradientUnits="userSpaceOnUse">
<stop stop-color="#0077B5"/>
<stop offset="1" stop-color="#0066B2"/>
</linearGradient>
<linearGradient id="paint1_linear" x1="85.3787" y1="73.6142" x2="-88.9655" y2="-19.9106" gradientUnits="userSpaceOnUse">
<stop stop-color="#0066B2" stop-opacity="0"/>
<stop offset="1" stop-color="#07485E"/>
</linearGradient>
<linearGradient id="paint2_linear" x1="60.0001" y1="97.4595" x2="60.0001" y2="122.539" gradientUnits="userSpaceOnUse">
<stop stop-color="#0066B2" stop-opacity="0"/>
<stop offset="1" stop-color="#07485E"/>
</linearGradient>
<linearGradient id="paint3_linear" x1="63.5987" y1="64.1662" x2="18.7305" y2="19.298" gradientUnits="userSpaceOnUse">
<stop stop-color="#0066B2" stop-opacity="0"/>
<stop offset="1" stop-color="#07485E"/>
</linearGradient>
<linearGradient id="paint4_linear" x1="89.9413" y1="105.851" x2="-0.411692" y2="63.4981" gradientUnits="userSpaceOnUse">
<stop stop-color="#0066B2" stop-opacity="0"/>
<stop offset="1" stop-color="#07485E"/>
</linearGradient>
<linearGradient id="paint5_linear" x1="111.921" y1="115.138" x2="48.9773" y2="52.1937" gradientUnits="userSpaceOnUse">
<stop stop-color="#0066B2" stop-opacity="0"/>
<stop offset="1" stop-color="#07485E"/>
</linearGradient>
<clipPath id="clip0">
<rect width="120" height="120" fill="white"/>
</clipPath>
</defs>
</svg>
