<svg width="277" height="272" viewBox="0 0 277 272" fill="none" xmlns="http://www.w3.org/2000/svg">
						<g clip-path="url(#clip0)">
							<path
								d="M277 136C277.025 154.41 273.23 172.632 265.846 189.555L265.387 190.593C252.898 218.493 231.242 241.474 203.882 255.863C176.522 270.251 145.039 275.215 114.467 269.96C113.636 269.815 112.805 269.665 111.976 269.509C103.409 267.879 95.0202 265.449 86.9231 262.255C85.6077 261.736 84.302 261.198 83.0058 260.641C82.1207 260.263 81.2356 259.873 80.3587 259.47C56.3709 248.553 36.0613 231.13 21.8237 209.254C7.58615 187.378 0.0140822 161.962 0 136C0 60.8902 62.0095 0 138.5 0C214.991 0 277 60.8902 277 136Z"
								fill="#5850EC"
							/>
							<path
								opacity="0.2"
								d="M114.467 269.96C113.636 269.815 112.805 269.665 111.976 269.509C111.435 254.095 109.579 222.457 103.248 189.322C99.7856 171.187 94.979 152.598 88.3122 135.98C86.0282 130.23 83.4194 124.61 80.498 119.145C73.7615 106.651 65.5908 96.1335 55.6827 89.0076L57.1415 87.0521C65.3818 92.983 72.7876 101.309 79.3589 112.031C81.3298 115.242 83.2229 118.667 85.0382 122.307C86.9846 126.202 88.8408 130.337 90.6069 134.712C91.7337 137.497 92.8223 140.378 93.8727 143.355C98.4457 156.283 102.333 171.034 105.535 187.608C106.243 191.269 106.918 195.021 107.559 198.862C112.521 228.625 114.017 256.143 114.467 269.96Z"
								fill="black"
							/>
							<path
								opacity="0.2"
								d="M83.0057 260.641C82.1206 260.263 81.2355 259.873 80.3587 259.47C79.5023 250.337 77.9288 239.006 75.0522 228.251C73.7924 223.42 72.175 218.686 70.2129 214.087C66.9307 206.543 62.6815 200.129 57.1866 196.174L58.6453 194.222C64.3984 198.359 68.8361 204.897 72.2658 212.546C76.1299 221.165 78.7073 231.196 80.4242 240.78C81.6986 247.898 82.5017 254.775 83.0057 260.641Z"
								fill="black"
							/>
							<path
								opacity="0.2"
								d="M41.9031 88.9513C48.7123 88.9513 54.2323 83.531 54.2323 76.8447C54.2323 70.1584 48.7123 64.7381 41.9031 64.7381C35.0939 64.7381 29.5739 70.1584 29.5739 76.8447C29.5739 83.531 35.0939 88.9513 41.9031 88.9513Z"
								fill="black"
							/>
							<path
								opacity="0.2"
								d="M45.8736 193.168C52.6828 193.168 58.2028 187.748 58.2028 181.061C58.2028 174.375 52.6828 168.955 45.8736 168.955C39.0644 168.955 33.5444 174.375 33.5444 181.061C33.5444 187.748 39.0644 193.168 45.8736 193.168Z"
								fill="black"
							/>
							<path
								opacity="0.2"
								d="M90.8505 97.1802C88.236 111.664 94.0075 124.779 94.0075 124.779C94.0075 124.779 104.018 114.411 106.632 99.927C109.247 85.4429 103.475 72.3278 103.475 72.3278C103.475 72.3278 93.4649 82.6961 90.8505 97.1802Z"
								fill="black"
							/>
							<path
								opacity="0.2"
								d="M49.8754 131.562C63.9446 136.614 78.0822 133.372 78.0822 133.372C78.0822 133.372 69.4091 121.94 55.3399 116.888C41.2707 111.836 27.1331 115.078 27.1331 115.078C27.1331 115.078 35.8062 126.511 49.8754 131.562Z"
								fill="black"
							/>
							<path
								opacity="0.2"
								d="M47.4897 223.85C57.351 227.391 67.2743 225.081 67.2743 225.081C67.2743 225.081 61.2092 217.03 51.3478 213.489C41.4864 209.949 31.5631 212.258 31.5631 212.258C31.5631 212.258 37.6283 220.309 47.4897 223.85Z"
								fill="black"
							/>
							<path
								d="M138.216 166.117C168.036 166.117 192.21 142.379 192.21 113.097C192.21 83.8147 168.036 60.0769 138.216 60.0769C108.395 60.0769 84.2211 83.8147 84.2211 113.097C84.2211 142.379 108.395 166.117 138.216 166.117Z"
								fill="#D0CDE1"
							/>
							<path
								d="M117.124 153.69C117.124 153.69 123.873 185.171 123.873 188.485C123.873 191.798 155.933 206.71 155.933 206.71L184.617 201.74L194.741 171.916C194.741 171.916 177.868 147.063 177.868 137.121L117.124 153.69Z"
								fill="#D0CDE1"
							/>
							<path
								d="M265.846 189.555L265.387 190.593C252.898 218.493 231.242 241.474 203.882 255.863C176.522 270.251 145.039 275.215 114.467 269.96C113.636 269.815 112.805 269.665 111.976 269.509C103.409 267.879 95.0202 265.449 86.9231 262.255C85.6078 261.736 84.302 261.198 83.0058 260.641C82.1207 260.263 81.2356 259.873 80.3587 259.47C72.4104 255.854 64.8299 251.505 57.7193 246.482L51.3188 228.251L54.9165 225.555L62.3168 220.006L70.2129 214.087L72.2659 212.546L103.248 189.322L105.535 187.608L121.638 175.537L121.642 175.533C121.642 175.533 139.057 203.396 164.368 195.112C189.679 186.827 189.126 163.071 189.126 163.071L265.846 189.555Z"
								fill="#2F2E41"
							/>
							<path
								d="M91.3917 70.3804C91.3917 70.3804 108.535 33.9075 141.392 42.3243C174.25 50.7412 192.822 63.3664 194.25 75.9916C195.679 88.6168 193.536 107.555 193.536 107.555C193.536 107.555 189.964 81.6028 167.107 87.214C144.25 92.8253 108.535 88.6168 108.535 88.6168L102.82 139.118C102.82 139.118 96.3918 130 89.2488 135.611C82.1059 141.222 68.5343 81.6028 91.3917 70.3804Z"
								fill="#2F2E41"
							/>
							<path
								d="M86.9231 262.255C85.6078 261.736 84.302 261.198 83.0058 260.641C82.1207 260.263 81.2356 259.873 80.3587 259.47C67.2131 253.485 55.1028 245.515 44.4675 235.851C48.2332 230.814 51.3188 228.251 51.3188 228.251H76.6298L80.4242 240.78L86.9231 262.255Z"
								fill="#2F2E41"
							/>
							<path
								d="M243.674 186.827L265.387 190.593C259.577 203.592 251.729 215.617 242.129 226.231L243.674 186.827Z"
								fill="#2F2E41"
							/>
						</g>
						<defs>
							<clipPath id="clip0">
								<rect width="277" height="272" fill="white" />
							</clipPath>
						</defs>
					</svg>