	<svg
											width="48"
											height="48"
											viewBox="0 0 48 48"
											fill="none"
											xmlns="http://www.w3.org/2000/svg"
										>
											<path
												d="M48 24C48 37.2548 37.2548 48 24 48C11.7708 48 1.67803 38.8536 0.190031 27.0279C0.0646875 26.0365 0 25.0256 0 24C0 22.1212 0.215531 20.2923 0.624 18.5377C3.09647 7.91512 12.624 0 24 0C35.3476 0 44.8565 7.87594 47.3564 18.4595C47.6845 19.8436 47.8912 21.2738 47.9667 22.7383C47.9892 23.1565 48 23.5768 48 24Z"
												fill="white"
											/>
											<path
												d="M22.7995 25.9274V19.6875L17.3956 16.5676L11.9918 19.6875V25.9274L17.3956 29.0474L22.7995 25.9274Z"
												fill="#3B8739"
											/>
											<path
												d="M44.0816 24.9805L47.6032 27.0141L44.0816 29.0477L38.6782 25.9277V19.6877L44.0816 16.5677L47.3564 18.4593C47.6845 19.8435 47.8912 21.2737 47.9667 22.7382L45.9644 23.8941V21.7204L44.0816 20.6341L42.1988 21.7204V23.8941L44.0816 24.9805Z"
												fill="#333333"
											/>
											<path
												d="M45.1305 23.4131V22.2019L44.0815 21.5963L43.0325 22.2019V23.4131L44.0815 24.0188L45.1305 23.4131Z"
												fill="#66A060"
											/>
											<path
												d="M9.43931 19.6878V27.9164L5.83537 25.8602V21.6422L4.03594 20.6027L2.23641 21.6421V25.8602L0.190031 27.0279C0.0646875 26.0365 0 25.0256 0 24C0 22.1211 0.215531 20.2922 0.624 18.5377L4.03594 16.5677L9.43931 19.6878Z"
												fill="#333333"
											/>
											<path
												d="M22.799 25.9266L17.3952 16.5673L11.9916 19.6871L17.3954 29.0465L22.799 25.9266Z"
												fill="#6DA75D"
											/>
											<path
												d="M11.9918 25.9274L13.8473 22.9015L11.9918 19.6875V25.9274Z"
												fill="#55A344"
											/>
											<path
												d="M20.998 22.8073L22.7995 19.6875L17.3956 16.5676L20.998 22.8073Z"
												fill="#639D57"
											/>
											<path
												d="M32.4892 9.33557V17.6141L30.6779 16.5678L25.2735 19.6878V25.9278L30.6779 29.0478L36.0814 25.9278V11.2585L32.4892 9.33557ZM32.4793 23.8472L30.6778 24.8876L28.8763 23.8472V21.7676L30.6778 20.7272L32.4793 21.7676V23.8472Z"
												fill="#333333"
											/>
											<path
												d="M26.4515 33.6297C26.4515 33.6297 26.3453 32.7176 25.3697 32.7176C24.3939 32.7176 23.7259 32.8448 23.7259 33.3858C23.7259 33.9267 25.6243 33.9267 26.3455 34.1388C27.0668 34.3508 27.703 34.9024 27.3848 35.8781C27.0667 36.8539 26.0909 36.9599 24.5849 36.9599C23.0789 36.9599 22.7394 35.7083 22.7394 35.2205H23.5879C23.5879 35.2205 23.4818 35.9841 24.4787 36.1114C25.4756 36.2386 26.4289 36.3102 26.5574 35.5387C26.7271 34.5205 23.3333 35.0297 23.0363 34.0327C22.7854 33.1904 22.9301 32.0813 24.6271 31.9116C26.3241 31.7418 27.2573 32.491 27.2573 33.6085L26.4515 33.6297Z"
												fill="#66A060"
											/>
											<path
												d="M18.2553 37.6061L20.131 38.689C21.0735 39.2331 22.2516 38.5529 22.2516 37.4647V35.567V32.0745H21.487V37.2521C21.487 37.8463 20.8437 38.2179 20.3289 37.9206L19.0197 37.1648V31.6392L23.805 28.8766L28.5903 31.6392V37.1648L23.805 39.9273L22.4265 39.1315L21.5263 39.4945L23.8049 40.8101L29.3547 37.6058V31.1979L23.805 27.9938L18.2552 31.1981V37.6061H18.2553Z"
												fill="#66A060"
											/>
										</svg>