										<svg
											width="48"
											height="48"
											viewBox="0 0 48 48"
											fill="none"
											xmlns="http://www.w3.org/2000/svg"
										>
											<path
												d="M48 24C48 31.9073 44.1757 38.9212 38.2765 43.294C35.807 45.1239 32.974 46.4914 29.9059 47.2672C28.0163 47.7463 26.0385 48 24 48C21.9615 48 19.9827 47.7463 18.0931 47.2672C15.025 46.4914 12.192 45.1239 9.72244 43.293C3.82331 38.9201 0 31.9063 0 24C0 10.7452 10.7452 0 24 0C37.2548 0 48 10.7452 48 24Z"
												fill="#5ADAFD"
											/>
											<path
												d="M38.3011 37.5135C38.1884 36.7583 38.0395 35.9804 37.8554 35.185C37.6927 34.4866 37.5037 33.7744 37.2892 33.0515C36.725 31.153 35.9815 29.1802 35.0803 27.1857C34.6855 26.3138 34.2604 25.4381 33.8068 24.5634C33.4071 23.7924 32.9859 23.0205 32.5421 22.2534C32.0993 21.4854 31.6429 20.7351 31.1736 20.0034C30.6437 19.1737 30.098 18.3684 29.5397 17.5906C28.2642 15.8126 26.9271 14.1817 25.5645 12.7435C25.0463 12.1959 24.5241 11.6768 24.0001 11.1879C23.4035 10.6296 22.804 10.1114 22.2054 9.63629C18.2978 6.53391 14.7997 5.60232 12.3537 7.01391C9.90767 8.42644 8.9653 11.9216 9.69805 16.8579C9.8097 17.6131 9.95961 18.3909 10.1448 19.1863C10.3055 19.8848 10.4945 20.597 10.71 21.3199C11.2743 23.2183 12.0177 25.1922 12.92 27.1856C13.3138 28.0575 13.7389 28.9322 14.1924 29.807C14.5921 30.5789 15.0143 31.3498 15.4571 32.1178C15.8999 32.8858 16.3564 33.6362 16.8256 34.3679C17.3565 35.1986 17.9021 36.0039 18.4595 36.7816C19.735 38.5596 21.0721 40.1896 22.4347 41.6276C22.953 42.1752 23.476 42.6954 24.0001 43.1842C24.5966 43.7425 25.1961 44.2598 25.7937 44.7349C27.2308 45.8761 28.612 46.7234 29.906 47.2672C32.9741 46.4913 35.8071 45.1239 38.2766 43.2939C38.6213 41.7052 38.6341 39.7587 38.3011 37.5135ZM36.1009 42.9375C35.8158 44.1699 35.2917 45.0143 34.5424 45.4463C33.794 45.8792 32.8007 45.9106 31.5908 45.5423C30.2801 45.1416 28.75 44.2659 27.1651 43.0071C26.6322 42.5839 26.0983 42.1235 25.5644 41.6288C25.0413 41.1429 24.5181 40.6237 23.999 40.0741C23.1076 39.1308 22.226 38.0982 21.3659 36.9904C20.7919 36.2508 20.2266 35.4779 19.6751 34.6756C18.8748 33.5128 18.1019 32.2884 17.3672 31.0149C16.6315 29.7414 15.9575 28.4601 15.3512 27.1856C14.9319 26.3069 14.5449 25.4312 14.1923 24.5643C13.6624 23.2654 13.2088 21.985 12.8375 20.7419C12.622 20.017 12.433 19.3059 12.2752 18.6094C12.1126 17.9002 11.9804 17.2066 11.8805 16.5337C11.5827 14.5324 11.5895 12.7691 11.8981 11.4339C12.1832 10.2016 12.7082 9.35719 13.4566 8.92519C13.8611 8.69204 14.3362 8.57448 14.8779 8.57448C15.3403 8.57448 15.8516 8.65969 16.408 8.83013C17.7187 9.22979 19.2488 10.1065 20.8338 11.3644C21.3666 11.7876 21.9015 12.248 22.4345 12.7447C22.9585 13.2295 23.4807 13.7487 23.9989 14.2974C24.8913 15.2407 25.7729 16.2732 26.634 17.3821C27.208 18.1217 27.7732 18.8946 28.3248 19.6969C29.1241 20.8597 29.897 22.0841 30.6317 23.3566C31.3673 24.6301 32.0413 25.9114 32.6477 27.1858C33.0669 28.0655 33.4539 28.9413 33.8065 29.8082C34.3365 31.1071 34.79 32.3865 35.1613 33.6295C35.3768 34.3544 35.5658 35.0656 35.7245 35.7621C35.8862 36.4713 36.0185 37.1649 36.1184 37.8378C36.4163 39.8391 36.4095 41.6023 36.1009 42.9375Z"
												fill="#F2F2F2"
											/>
											<path
												d="M40.0947 19.9651C39.3845 19.685 38.6361 19.4254 37.8544 19.1863C37.1687 18.9776 36.4575 18.7847 35.7237 18.6094C33.7978 18.149 31.7172 17.8061 29.5396 17.5906C28.5884 17.4955 27.6176 17.4261 26.6341 17.3819C25.7661 17.3418 24.8865 17.3212 24 17.3212C23.1135 17.3212 22.2337 17.3417 21.3649 17.3819C20.3804 17.426 19.4096 17.4966 18.4584 17.5906C16.2808 17.8061 14.2012 18.149 12.2752 18.6094C11.5416 18.7847 10.8304 18.9777 10.1446 19.1863C9.3629 19.4244 8.61449 19.685 7.90424 19.9651C3.26399 21.7969 0.707245 24.3615 0.707245 27.1856C0.707245 30.0098 3.26399 32.5744 7.90434 34.4072C8.61459 34.6873 9.36196 34.9469 10.1437 35.186C10.8293 35.3947 11.5405 35.5876 12.2743 35.762C14.2002 36.2233 16.2808 36.5652 18.4595 36.7817C19.4106 36.8757 20.3814 36.9453 21.3659 36.9904C22.2338 37.0305 23.1135 37.0501 24 37.0501C24.8865 37.0501 25.7652 37.0305 26.6331 36.9904C27.6176 36.9453 28.5875 36.8757 29.5396 36.7817C31.7172 36.5662 33.7988 36.2233 35.7247 35.762C36.4584 35.5867 37.1696 35.3947 37.8554 35.185C38.6361 34.947 39.3846 34.6874 40.0947 34.4072C44.736 32.5744 47.2918 30.0099 47.2918 27.1856C47.2917 24.3615 44.736 21.7969 40.0947 19.9651ZM43.6917 29.7894C42.6906 30.7249 41.1664 31.6114 39.2845 32.3549C38.6508 32.6047 37.9846 32.8378 37.2891 33.0514C36.6063 33.262 35.8961 33.455 35.1614 33.6294C33.8987 33.9301 32.5635 34.1769 31.1735 34.368C30.2467 34.4964 29.2956 34.5992 28.3248 34.6747C26.9171 34.7874 25.4703 34.8442 23.9999 34.8442C22.5295 34.8442 21.0827 34.7874 19.675 34.6757C18.7042 34.5993 17.7521 34.4964 16.8254 34.3681C15.4354 34.177 14.1002 33.9302 12.8375 33.6294C12.1027 33.4551 11.3926 33.2621 10.7098 33.0515C10.0143 32.8379 9.34818 32.6048 8.71434 32.355C6.83259 31.6115 5.30831 30.725 4.30715 29.7894C3.3824 28.9264 2.91318 28.0507 2.91318 27.1857C2.91318 26.3208 3.3824 25.445 4.30715 24.582C5.30831 23.6465 6.83249 22.76 8.71434 22.0164C9.34809 21.7667 10.0143 21.5335 10.7098 21.32C11.3926 21.1093 12.1027 20.9164 12.8375 20.742C14.1002 20.4413 15.4354 20.1944 16.8254 20.0034C17.7521 19.875 18.7042 19.7722 19.675 19.6958C21.0827 19.5841 22.5295 19.5273 23.9999 19.5273C25.4703 19.5273 26.9171 19.5841 28.3248 19.6968C29.2956 19.7723 30.2467 19.8751 31.1735 20.0034C32.5635 20.1945 33.8987 20.4414 35.1614 20.7421C35.8961 20.9165 36.6063 21.1094 37.2891 21.3201C37.9846 21.5336 38.6507 21.7668 39.2845 22.0165C41.1663 22.7601 42.6906 23.6466 43.6917 24.5821C44.6165 25.4452 45.0857 26.3209 45.0857 27.1858C45.0857 28.0507 44.6165 28.9264 43.6917 29.7894Z"
												fill="#F2F2F2"
											/>
											<path
												d="M35.6454 7.01391C33.1993 5.60232 29.7012 6.53391 25.7936 9.63629C25.1961 10.1114 24.5965 10.6296 24 11.1879C23.4759 11.6768 22.9528 12.1969 22.4347 12.7445C21.072 14.1825 19.7349 15.8125 18.4585 17.5905C17.9012 18.3683 17.3555 19.1736 16.8256 20.0033C16.3564 20.735 15.8999 21.4854 15.4571 22.2534C15.0143 23.0214 14.5922 23.7923 14.1924 24.5642C13.7389 25.439 13.3137 26.3147 12.92 27.1855C12.0177 29.18 11.2743 31.1529 10.71 33.0513C10.4945 33.7752 10.3055 34.4874 10.1437 35.1858C9.95962 35.9813 9.80972 36.7581 9.69806 37.5133C9.36496 39.7576 9.37772 41.704 9.72253 43.2929C12.1921 45.1238 15.025 46.4913 18.0932 47.2672C19.3872 46.7235 20.7684 45.8761 22.2055 44.7349C22.804 44.2598 23.4036 43.7416 24.0002 43.1842C24.5243 42.6954 25.0464 42.1762 25.5646 41.6286C26.9262 40.1905 28.2643 38.5595 29.5398 36.7815C30.0971 36.0037 30.6428 35.1984 31.1738 34.3678C31.643 33.6361 32.0994 32.8857 32.5422 32.1177C32.9859 31.3507 33.4072 30.5798 33.8069 29.8078C34.2605 28.933 34.6856 28.0573 35.0804 27.1854C35.9816 25.1919 36.7252 23.2181 37.2894 21.3197C37.5039 20.5968 37.6929 19.8846 37.8546 19.1861C38.0397 18.3907 38.1886 17.6129 38.3013 16.8577C39.0338 11.9216 38.0915 8.42644 35.6454 7.01391ZM35.1615 20.7419C34.7903 21.985 34.3367 23.2644 33.8067 24.5633C33.454 25.4302 33.0671 26.306 32.6479 27.1856C32.0415 28.4601 31.3675 29.7414 30.6319 31.0149C29.8972 32.2873 29.1243 33.5118 28.325 34.6746C27.7725 35.4778 27.2073 36.2507 26.6333 36.9903C25.7732 38.0982 24.8916 39.1307 23.9992 40.074C23.481 40.6225 22.9588 41.1417 22.4348 41.6276C21.9019 42.1233 21.367 42.5837 20.8341 43.0069C19.2491 44.2657 17.7189 45.1414 16.4083 45.5421C15.1986 45.9104 14.2052 45.879 13.4568 45.4461C12.7084 45.0141 12.1833 44.1697 11.8983 42.9373C11.5897 41.6021 11.5828 39.8389 11.8807 37.8376C11.9806 37.1647 12.1128 36.4711 12.2744 35.7619C12.4331 35.0654 12.6221 34.3542 12.8377 33.6294C13.2089 32.3862 13.6625 31.1059 14.1924 29.807C14.5451 28.9401 14.932 28.0643 15.3513 27.1856C15.9577 25.9112 16.6316 24.6299 17.3673 23.3564C18.102 22.0829 18.8749 20.8584 19.6752 19.6957C20.2268 18.8934 20.7909 18.1205 21.365 17.3819C22.2261 16.273 23.1077 15.2406 23.9991 14.2972C24.5183 13.7476 25.0414 13.2284 25.5644 12.7435C26.0983 12.2479 26.6321 11.7875 27.1651 11.3643C28.75 10.1065 30.2802 9.22979 31.5908 8.83004C32.1473 8.6596 32.6586 8.57438 33.1209 8.57438C33.6626 8.57438 34.1387 8.69194 34.5423 8.9251C35.2916 9.3571 35.8158 10.2015 36.1008 11.4339C36.4093 12.769 36.4163 14.5323 36.1184 16.5336C36.0185 17.2065 35.8863 17.9001 35.7236 18.6093C35.566 19.3058 35.3769 20.0169 35.1615 20.7419Z"
												fill="#F2F2F2"
											/>
											<path
												d="M24 31.5634C26.4178 31.5634 28.3777 29.6034 28.3777 27.1856C28.3777 24.7678 26.4178 22.8079 24 22.8079C21.5822 22.8079 19.6222 24.7678 19.6222 27.1856C19.6222 29.6034 21.5822 31.5634 24 31.5634Z"
												fill="#F2F2F2"
											/>
										</svg>