<svg
											width="48"
											height="48"
											viewBox="0 0 48 48"
											fill="none"
											xmlns="http://www.w3.org/2000/svg"
										>
											<path
												d="M24.0203 20C21.8113 20 20.0203 21.791 20.0203 24C20.0203 26.209 21.8113 28 24.0203 28C26.2297 28 28.0203 26.209 28.0203 24C28.018 21.7918 26.2285 20.0027 24.0203 20ZM24.0203 26.4C22.6949 26.4 21.6203 25.3254 21.6203 24C21.6203 22.6746 22.6949 21.6 24.0203 21.6C25.3461 21.6 26.4203 22.6746 26.4203 24C26.4203 25.3254 25.3461 26.4 24.0203 26.4Z"
												fill="url(#paint0_linear)"
											/>
											<path
												d="M37.9406 24C39.143 22.9836 40.2855 21.8984 41.3629 20.7504C44.7844 17.0496 45.9758 14.023 44.8078 12C43.1277 9.09375 37.4844 9.63281 30.9836 11.9434C29.7316 5.15859 27.3758 0 24.0203 0C20.6652 0 18.3094 5.15859 17.0605 11.9441C10.5598 9.63359 4.91406 9.09453 3.23632 12C2.06836 14.023 3.25976 17.0496 6.68125 20.7504C7.75781 21.8984 8.89921 22.9832 10.1004 24C8.89804 25.0164 7.75546 26.1016 6.67812 27.2496C3.25898 30.9504 2.06757 33.977 3.23554 36C4.03554 37.3871 5.74062 37.9895 8.01093 37.9895C11.1121 37.8375 14.1684 37.1844 17.0605 36.0551C18.3094 42.8414 20.6652 48 24.0203 48C27.3758 48 29.7316 42.8414 30.9805 36.0559C33.8726 37.1844 36.9285 37.8375 40.0293 37.9895C42.2988 37.9895 44.0035 37.3863 44.8047 36C45.9726 33.977 44.7812 30.9504 41.3598 27.2496C40.2832 26.1016 39.1418 25.0168 37.9406 24V24ZM43.4223 12.8C44.1711 14.0977 42.9621 16.6641 40.1887 19.6641C39.0902 20.8328 37.923 21.9344 36.6926 22.9633C35.2156 21.7754 33.607 20.5977 31.8805 19.4566C31.7551 17.4313 31.5445 15.4359 31.2531 13.5367C37.7004 11.2223 42.4012 11.0398 43.4195 12.8H43.4223ZM27.2203 29.5426C26.1355 30.1676 25.0691 30.7492 24.0203 31.2879C22.973 30.7504 21.9062 30.1684 20.8203 29.5426C19.7492 28.9238 18.7156 28.2832 17.7086 27.6336C17.65 26.4609 17.6203 25.2496 17.6203 24C17.6203 22.7504 17.65 21.5391 17.7086 20.3664C18.7156 19.7168 19.7492 19.0762 20.8203 18.4574C21.9043 17.832 22.9711 17.2504 24.0203 16.7129C25.0684 17.252 26.1371 17.8328 27.2203 18.4574C28.2918 19.0762 29.3254 19.7168 30.3324 20.3664C30.391 21.5391 30.4203 22.7504 30.4203 24C30.4203 25.2496 30.391 26.4609 30.3324 27.6336C29.3254 28.2832 28.2918 28.9238 27.2203 29.5426ZM30.207 29.6137C30.0902 31.1184 29.9285 32.5465 29.7269 33.8879C28.4644 33.3895 27.1461 32.8152 25.7836 32.1633C26.5355 31.7633 27.2828 31.3527 28.018 30.9289C28.7531 30.5047 29.4918 30.0594 30.207 29.6137V29.6137ZM22.2551 32.1602C20.8949 32.8113 19.5742 33.3863 18.3117 33.8848C18.1125 32.5434 17.9508 31.1152 17.8316 29.6105C18.5469 30.0559 19.2758 30.4941 20.018 30.9258C20.7559 31.3527 21.5027 31.7602 22.2551 32.1602ZM16.066 26.5383C14.8484 25.7047 13.6988 24.8586 12.6164 24C13.6961 23.143 14.8457 22.2957 16.066 21.4586C16.0371 22.3063 16.0203 23.1551 16.0203 24C16.0203 24.8449 16.0371 25.6938 16.066 26.5414V26.5383ZM17.834 18.3832C17.9508 16.8793 18.1125 15.452 18.3141 14.1113C19.575 14.609 20.8918 15.184 22.2523 15.8344C21.5016 16.2332 20.7582 16.6445 20.023 17.068C19.2773 17.5 18.5477 17.9395 17.834 18.3863V18.3832ZM25.7879 15.8398C27.1476 15.1887 28.4676 14.6145 29.7293 14.116C29.9285 15.4574 30.0902 16.8855 30.2094 18.3902C29.4926 17.9418 28.7629 17.502 28.0203 17.0711C27.2859 16.6473 26.5398 16.2398 25.7879 15.8398ZM31.975 21.4625C33.1926 22.2953 34.3422 23.1414 35.4246 24C34.3449 24.8566 33.1953 25.7039 31.975 26.5414C32.0035 25.6938 32.0203 24.8449 32.0203 24C32.0203 23.1551 32.0035 22.3063 31.975 21.4586V21.4625ZM24.0203 1.6C26.0566 1.6 28.2476 5.76563 29.4644 12.5078C27.6742 13.2047 25.8398 14.0207 24.0246 14.9258C22.2055 14.0207 20.3699 13.2047 18.5844 12.5078C19.7934 5.76641 21.9844 1.6 24.0203 1.6V1.6ZM7.85507 19.6641C5.08125 16.6641 3.87265 14.0977 4.62148 12.8C5.07343 12.0176 6.24921 11.6184 7.98125 11.6184C11.0019 11.7773 13.9769 12.4258 16.7902 13.5383C16.4988 15.4344 16.2887 17.4289 16.1629 19.4535C14.4363 20.5945 12.8277 21.7734 11.3508 22.9602C10.1207 21.9324 8.95312 20.8316 7.85507 19.6641ZM4.62148 35.2C3.87265 33.9023 5.08125 31.3359 7.85507 28.3359C8.95312 27.1672 10.1203 26.0656 11.3508 25.0367C12.8277 26.2246 14.4363 27.4023 16.1629 28.5434C16.2887 30.5688 16.4988 32.5641 16.7902 34.4633C10.3406 36.7777 5.63984 36.9602 4.62148 35.2V35.2ZM24.0203 46.4C21.9844 46.4 19.7941 42.2344 18.5805 35.493C20.3699 34.7961 22.2055 33.9801 24.0246 33.0754C25.8437 33.9801 27.6789 34.7961 29.4684 35.493C28.2469 42.2344 26.0566 46.4 24.0203 46.4V46.4ZM43.4195 35.2C42.4019 36.9602 37.698 36.7777 31.2508 34.4609C31.5422 32.5641 31.7523 30.5688 31.8781 28.5406C33.6047 27.4 35.2133 26.2207 36.6902 25.0344C37.9207 26.0629 39.0879 27.1648 40.1859 28.3336C42.9598 31.3359 44.1683 33.9023 43.4195 35.2V35.2Z"
												fill="url(#paint1_linear)"
											/>
											<defs>
												<linearGradient
													id="paint0_linear"
													x1="24.0205"
													y1="47.6432"
													x2="24.0205"
													y2="-2.6208"
													gradientUnits="userSpaceOnUse"
												>
													<stop stop-color="#006DF0" />
													<stop offset="1" stop-color="#00E7F0" />
												</linearGradient>
												<linearGradient
													id="paint1_linear"
													x1="24.0205"
													y1="47.6432"
													x2="24.0205"
													y2="-2.6208"
													gradientUnits="userSpaceOnUse"
												>
													<stop stop-color="#006DF0" />
													<stop offset="1" stop-color="#00E7F0" />
												</linearGradient>
											</defs>
										</svg>