	<svg
											width="48"
											height="48"
											viewBox="0 0 48 48"
											fill="none"
											xmlns="http://www.w3.org/2000/svg"
										>
											<g clip-path="url(#clip0)">
												<path
													d="M10 21V28H12C13.98 28 15.74 28.98 16.84 30.48C18.44 28.96 20.6 28 23 28H25C27.4 28 29.56 28.96 31.16 30.48C32.26 28.98 34.02 28 36 28C36.7 28 37.38 28.12 38 28.36V21H10Z"
													fill="#FFC107"
												/>
												<path
													d="M24 26C22.566 26 10 25.86 10 21V13H38V21C38 25.86 25.434 26 24 26Z"
													fill="#FFD54F"
												/>
												<path
													d="M24 18C22.566 18 10 17.86 10 13V5H38V13C38 17.86 25.434 18 24 18Z"
													fill="#FFC107"
												/>
												<path
													d="M24 10C22.566 10 10 9.86 10 5C10 0.14 22.566 0 24 0C25.434 0 38 0.14 38 5C38 9.86 25.434 10 24 10Z"
													fill="#FFD54F"
												/>
												<path
													d="M10 21V28H12C13.98 28 15.74 28.98 16.84 30.48C18.44 28.96 20.6 28 23 28H24V26C22.566 26 10 25.86 10 21Z"
													fill="#DEA806"
												/>
												<path
													d="M10 13V21C10 25.86 22.566 26 24 26V18C22.566 18 10 17.86 10 13Z"
													fill="#DEB945"
												/>
												<path
													d="M10 5V13C10 17.86 22.566 18 24 18V10C22.566 10 10 9.86 10 5Z"
													fill="#DEA806"
												/>
												<path
													d="M24 0C22.566 0 10 0.14 10 5C10 9.86 22.566 10 24 10V0Z"
													fill="#DEB945"
												/>
												<path
													d="M30 37C30 34.244 27.758 32 25 32H23C20.242 32 18 34.244 18 37V43C18 45.756 20.242 48 23 48H25C25.672 48 26.312 47.862 26.898 47.622C27.234 47.85 27.61 48 28 48C28.512 48 29.024 47.804 29.414 47.414C30.104 46.724 30.148 45.676 29.622 44.898C29.864 44.312 30 43.672 30 43V37ZM22 43V37C22 36.448 22.45 36 23 36H25C25.55 36 26 36.448 26 37V41.31C25.232 40.858 24.244 40.926 23.586 41.586C22.928 42.246 22.858 43.234 23.31 44H23C22.45 44 22 43.552 22 43V43Z"
													fill="#2196F3"
												/>
												<path
													d="M42 48H36C34.894 48 34 47.104 34 46V34C34 32.896 34.894 32 36 32C37.106 32 38 32.896 38 34V44H42C43.106 44 44 44.896 44 46C44 47.104 43.106 48 42 48Z"
													fill="#2196F3"
												/>
												<path
													d="M9 48H6C4.894 48 4 47.104 4 46C4 44.896 4.894 44 6 44H9C9.55 44 10 43.552 10 43C10 42.448 9.55 42 9 42C6.242 42 4 39.756 4 37C4 34.244 6.242 32 9 32H12C13.106 32 14 32.896 14 34C14 35.104 13.106 36 12 36H9C8.45 36 8 36.448 8 37C8 37.552 8.45 38 9 38C11.758 38 14 40.244 14 43C14 45.756 11.758 48 9 48Z"
													fill="#2196F3"
												/>
												<path
													d="M30 40.126H26V41.312C25.676 41.122 25.312 41.022 24.95 41.022C24.456 41.022 23.966 41.206 23.584 41.586C22.926 42.246 22.856 43.234 23.308 44H23C22.45 44 22 43.552 22 43V40.126H18V43C18 45.756 20.242 48 23 48H25C25.672 48 26.312 47.862 26.898 47.622C27.234 47.85 27.61 48 28 48C28.512 48 29.024 47.804 29.414 47.414C30.104 46.724 30.148 45.676 29.622 44.898C29.864 44.312 30 43.672 30 43V40.126Z"
													fill="#1D83D4"
												/>
												<path
													d="M38 40.126H34V46C34 47.104 34.894 48 36 48H42C43.106 48 44 47.104 44 46C44 44.896 43.106 44 42 44H38V40.126Z"
													fill="#1D83D4"
												/>
												<path
													d="M13.088 40.126H5.1C6.016 41.268 7.424 42 9 42C9.55 42 10 42.448 10 43C10 43.552 9.55 44 9 44H6C4.894 44 4 44.896 4 46C4 47.104 4.894 48 6 48H9C11.758 48 14 45.756 14 43C14 41.93 13.662 40.938 13.088 40.126V40.126Z"
													fill="#1D83D4"
												/>
											</g>
											<defs>
												<clipPath id="clip0">
													<rect width="48" height="48" fill="white" />
												</clipPath>
											</defs>
										</svg>