<svg
											width="48"
											height="48"
											viewBox="0 0 48 48"
											fill="none"
											xmlns="http://www.w3.org/2000/svg"
										>
											<path
												d="M48 24C48 26.1708 47.712 28.2749 47.1713 30.2753C45.9076 34.9528 43.2656 39.0641 39.7068 42.1469C35.4975 45.794 30.0068 48 24 48C10.7452 48 0 37.2548 0 24C0 10.7452 10.7452 0 24 0C37.2548 0 48 10.7452 48 24Z"
												fill="#0078CF"
											/>
											<path
												d="M47.1712 30.2752C45.9076 34.9528 43.2656 39.0641 39.7067 42.1469C39.359 42.1655 38.9956 42.1743 38.6184 42.1743C33.6352 42.1743 30.8659 39.0602 29.4896 36.7239L34.0075 34.0095C34.0075 34.0095 35.5444 37.2754 38.4255 37.2754C41.3074 37.2754 42.4604 36.3145 42.4604 34.1055C42.4604 31.4155 33.1425 30.4555 31.7015 25.8446C30.2606 21.2337 32.1815 14.7007 38.9064 15.1817C43.1088 15.4815 45.4727 17.5455 46.6549 19.0511L42.1723 22.2896C41.2113 19.5046 37.2734 19.5046 36.5043 21.8096C35.7363 24.1155 38.3293 25.4595 42.3643 26.8045C44.4372 27.4951 46.1044 28.7696 47.1712 30.2752Z"
												fill="#F2F2F2"
											/>
											<path
												d="M28.2134 15.9174H7.79117V20.7376H15.2751V41.6671H20.7295V20.7376H28.2134V15.9174Z"
												fill="#F2F2F2"
											/>
										</svg>