<svg xmlns="http://www.w3.org/2000/svg" viewBox="0 0 1440 320"><path fill="#5850ec" fill-opacity="1" d="M0,0L24,10.7C48,21,96,43,144,64C192,85,240,107,288,101.3C336,96,384,64,432,48C480,32,528,32,576,64C624,96,672,160,720,197.3C768,235,816,245,864,234.7C912,224,960,192,1008,165.3C1056,139,1104,117,1152,106.7C1200,96,1248,96,1296,112C1344,128,1392,160,1416,176L1440,192L1440,320L1416,320C1392,320,1344,320,1296,320C1248,320,1200,320,1152,320C1104,320,1056,320,1008,320C960,320,912,320,864,320C816,320,768,320,720,320C672,320,624,320,576,320C528,320,480,320,432,320C384,320,336,320,288,320C240,320,192,320,144,320C96,320,48,320,24,320L0,320Z"></path></svg>