<svg xmlns="http://www.w3.org/2000/svg" fill="none" viewBox="0 0 120 120">
  <defs/>
  <g clip-path="url(#clip0)">
    <path fill="url(#paint0_linear)" d="M7.5 8.2C-1.9 18 0 28.4 0 60c0 26.2-4.6 52.5 19.4 58.7 7.5 2 73.8 2 81.3 0 10-2.5 18-10.6 19.2-24.8V26C118.7 11 109.4 2.3 97.2.5 94.4.1 94 0 79.5 0c-50.8 0-62-2.2-72 8.2z"/>
    <path fill="#fff" d="M60 15.7C41.8 15.7 24.6 14 18 31c-2.7 7-2.3 16-2.3 29 0 11.4-.4 22.1 2.3 29 6.6 17 24 15.3 42 15.3 17.4 0 35.3 1.8 42-15.3 2.7-7 2.3-16 2.3-29 0-17.3 1-28.5-7.5-36.9-8.5-8.5-20-7.4-36.8-7.4zm-4 8c37.9 0 42.7-4.3 40 54.2-.9 20.7-16.6 18.4-36 18.4-35.3 0-36.3-1-36.3-36.3 0-35.7 2.8-36.3 32.3-36.3zM83.6 31a5.3 5.3 0 100 10.7 5.3 5.3 0 000-10.7zM60 37.2a22.8 22.8 0 100 45.6 22.8 22.8 0 000-45.6zm0 8c19.5 0 19.5 29.6 0 29.6s-19.6-29.6 0-29.6z"/>
  </g>
  <defs>
    <linearGradient id="paint0_linear" x1="7.7" x2="119.3" y1="112.3" y2="15.8" gradientUnits="userSpaceOnUse">
      <stop stop-color="#FD5"/>
      <stop offset=".5" stop-color="#FF543E"/>
      <stop offset="1" stop-color="#C837AB"/>
    </linearGradient>
    <clipPath id="clip0">
      <path fill="#fff" d="M0 0h120v120H0z"/>
    </clipPath>
  </defs>
</svg>
