<svg xmlns="http://www.w3.org/2000/svg" fill="none" viewBox="0 0 48 48">
  <defs/>
  <path fill="#E4BA42" d="M48 24A24 24 0 017 40.9 24 24 0 0124 0a23.9 23.9 0 0124 24z"/>
  <path fill="#F2F2F2" d="M36.7 21.8c-.7-1.9-3.4-1.9-4-.3-.5 1.6 1.3 2.5 4 3.5 2.9 1 4.6 3.4 4.3 5.6-.3 2.2-1.3 5-6.8 5a7.2 7.2 0 01-6.4-3.7l3.2-2s1 2.4 3 2.4S37 31.6 37 30c0-2-6.5-2.6-7.5-5.8-1-3.2.3-7.7 5-7.4 3 .2 4.6 1.6 5.4 2.7l-3.1 2.2zM22.1 17.2v12.9c0 1.5-1.3 2.3-2.7 2-1.3-.2-2-1.8-2-1.8l-3 2s.7 3.1 4.9 3.4c4.2.2 6.6-2.3 6.6-4.4v-14h-3.8z"/>
  <path fill="#F2F2F2" d="M7 4.2V41c1 1 2 1.9 3.2 2.7h27.6a24 24 0 002.7-2.1H9V6.4h35V37c1-1.3 1.6-2.7 2.2-4.1V4.2H7z"/>
  <path fill="#3F4A43" d="M8.2 35.6a3.8 3.8 0 100-7.6 3.8 3.8 0 000 7.6z"/>
</svg>
