<svg xmlns="http://www.w3.org/2000/svg" fill="none" viewBox="0 0 48 48">
  <defs/>
  <path fill="#fff" d="M48 24a24 24 0 11-48 0 24 24 0 0148 0z"/>
  <path fill="#3B8739" d="M22.8 26v-6.3l-5.4-3.1-5.4 3V26l5.4 3.1 5.4-3z"/>
  <path fill="#333" d="M44 25l3.6 2-3.5 2-5.4-3v-6.3l5.4-3.1 3.3 1.9c.3 1.3.5 2.8.6 4.2L46 24v-2.2l-2-1-1.8 1V24l1.9 1z"/>
  <path fill="#66A060" d="M45.1 23.4v-1.2l-1-.6-1 .6v1.2l1 .6 1-.6z"/>
  <path fill="#333" d="M9.4 19.7v8.2l-3.6-2v-4.3l-1.8-1-1.8 1V26L.2 27a24.1 24.1 0 01.4-8.5l3.4-2 5.4 3.2z"/>
  <path fill="#6DA75D" d="M22.8 26l-5.4-9.4-5.4 3 5.4 9.4 5.4-3z"/>
  <path fill="#55A344" d="M12 26l1.8-3.1-1.8-3.2v6.2z"/>
  <path fill="#639D57" d="M21 22.8l1.8-3.1-5.4-3.1 3.6 6.2z"/>
  <path fill="#333" d="M32.5 9.3v8.3l-1.8-1-5.4 3V26l5.4 3.1 5.4-3V11.2l-3.6-2zm0 14.5l-1.8 1-1.8-1v-2l1.8-1 1.8 1v2z"/>
  <path fill="#66A060" d="M26.5 33.6s-.2-.9-1.1-.9c-1 0-1.7.1-1.7.7 0 .5 2 .5 2.6.7.8.3 1.4.8 1 1.8-.2 1-1.2 1-2.7 1a1.7 1.7 0 01-1.9-1.7h.9s-.1.8.9 1c1 0 2 .1 2-.7.2-1-3.2-.5-3.5-1.5-.2-.8 0-2 1.6-2 1.7-.3 2.7.5 2.7 1.6h-.8z"/>
  <path fill="#66A060" d="M18.3 37.6l1.8 1c1 .6 2.2 0 2.2-1.1V32h-.8v5.2c0 .5-.7 1-1.2.6l-1.3-.7v-5.6l4.8-2.7 4.8 2.7v5.6l-4.8 2.7-1.4-.8-.9.4 2.3 1.3 5.6-3.2v-6.4L23.8 28l-5.5 3.2v6.4z"/>
</svg>
