<svg xmlns="http://www.w3.org/2000/svg" fill="none" viewBox="0 0 48 48">
  <defs/>
  <path fill="#5ADAFD" d="M48 24a24 24 0 11-48 0 24 24 0 0148 0z"/>
  <path fill="#F2F2F2" d="M38.3 37.5a30 30 0 00-1-4.4A46.5 46.5 0 0031.2 20a53.8 53.8 0 00-9-10.4c-3.9-3-7.4-4-9.8-2.6C9.9 8.4 9 12 9.7 17a29 29 0 001 4.4 46.3 46.3 0 006.1 13 54.8 54.8 0 007.2 8.9l1.8 1.5a18 18 0 004.1 2.6c3-.8 6-2.2 8.4-4 .3-1.6.3-3.5 0-5.8zM36.1 43c-.3 1.3-.8 2.1-1.6 2.5-.7.5-1.7.5-3 .1-1.2-.4-2.8-1.2-4.3-2.5a27.8 27.8 0 01-3.2-3 42 42 0 01-6.6-9 54.3 54.3 0 01-5.1-12.4l-.4-2c-.3-2-.3-3.8 0-5.2.3-1.2.8-2 1.6-2.5.4-.2.8-.3 1.4-.3.4 0 1 0 1.5.2 1.3.4 2.8 1.3 4.4 2.6a26.8 26.8 0 013.2 2.9 41.8 41.8 0 016.6 9 54.4 54.4 0 015.1 12.5l.4 2c.3 2 .3 3.8 0 5.1z"/>
  <path fill="#F2F2F2" d="M40 20a30.1 30.1 0 00-4.3-1.4 46.4 46.4 0 00-14.3-1.2A54.3 54.3 0 007.9 20C3.3 21.8.7 24.4.7 27.2s2.6 5.4 7.2 7.2a30.1 30.1 0 004.4 1.4A46.4 46.4 0 0026.6 37 55.4 55.4 0 0038 35.2l2.2-.8c4.6-1.8 7.2-4.4 7.2-7.2S44.7 21.8 40 20zm3.7 9.8c-1 1-2.5 1.8-4.4 2.6a27.3 27.3 0 01-4.1 1.2A41.9 41.9 0 0124 34.8a54.8 54.8 0 01-13.3-1.7l-2-.7c-1.9-.8-3.4-1.7-4.4-2.6-1-.9-1.4-1.7-1.4-2.6 0-.9.5-1.8 1.4-2.6 1-1 2.5-1.8 4.4-2.6a27.3 27.3 0 014.1-1.3A41.8 41.8 0 0124 19.5a54.3 54.3 0 0113.3 1.8l2 .7c1.9.8 3.4 1.6 4.4 2.6 1 .8 1.4 1.7 1.4 2.6 0 .9-.5 1.7-1.4 2.6z"/>
  <path fill="#F2F2F2" d="M35.6 7c-2.4-1.4-5.9-.5-9.8 2.6a29.5 29.5 0 00-3.4 3.1 46.4 46.4 0 00-8.2 11.9 54.4 54.4 0 00-4.5 13c-.3 2.2-.3 4.1 0 5.7 2.5 1.8 5.3 3.2 8.4 4a18 18 0 004.1-2.6 29.5 29.5 0 003.4-3 46.5 46.5 0 008.2-11.9 54.9 54.9 0 004-10.6l.5-2.3c.7-5-.2-8.5-2.7-9.9zm-.4 13.7A41.8 41.8 0 0130.6 31a55.2 55.2 0 01-8.2 10.6L20.8 43a14.2 14.2 0 01-4.4 2.5c-1.2.4-2.2.4-3 0-.7-.5-1.2-1.3-1.5-2.6-.3-1.3-.3-3 0-5a27.6 27.6 0 011-4.3 41.9 41.9 0 014.5-10.2 54.5 54.5 0 018.2-10.7c.5-.5 1-1 1.6-1.3 1.6-1.3 3-2.2 4.4-2.6l1.5-.2c.6 0 1 0 1.4.3.8.5 1.3 1.3 1.6 2.5.3 1.4.3 3.1 0 5.1a27.1 27.1 0 01-1 4.2z"/>
  <path fill="#F2F2F2" d="M24 31.6a4.4 4.4 0 100-8.8 4.4 4.4 0 000 8.8z"/>
</svg>
