<svg xmlns="http://www.w3.org/2000/svg" fill="none" viewBox="0 0 48 48">
  <defs/>
  <path fill="url(#paint0_linear)" d="M24 20a4 4 0 100 8 4 4 0 000-8zm0 6.4a2.4 2.4 0 110-4.8 2.4 2.4 0 010 4.8z"/>
  <path fill="url(#paint1_linear)" d="M38 24a41 41 0 003.4-3.2C44.8 17 46 14 44.8 12c-1.7-3-7.3-2.4-13.8 0-1.3-6.8-3.6-12-7-12-3.3 0-5.7 5.2-7 12-6.4-2.4-12-3-13.8 0-1.1 2 0 5 3.5 8.8A41 41 0 0010 24a41 41 0 00-3.4 3.2C3.3 31 2 34 3.2 36c.8 1.4 2.5 2 4.8 2 3.1-.2 6.2-.8 9-2 1.3 6.8 3.7 12 7 12 3.4 0 5.7-5.2 7-12 2.9 1.2 6 1.8 9 2 2.3 0 4-.6 4.8-2 1.2-2 0-5-3.4-8.8a41 41 0 00-3.5-3.2zm5.4-11.2c.8 1.3-.4 3.9-3.2 6.9a40.1 40.1 0 01-3.5 3.3 64 64 0 00-4.8-3.5l-.6-6c6.4-2.3 11.1-2.5 12.1-.7zM27.2 29.5c-1 .7-2.1 1.2-3.2 1.8a75 75 0 01-6.3-3.7 72.8 72.8 0 010-7.2 74.3 74.3 0 016.3-3.7 76 76 0 016.3 3.7 72.8 72.8 0 010 7.2l-3 2zm3 .1l-.5 4.3-4-1.7a75.1 75.1 0 004.5-2.6zm-8 2.6l-3.9 1.7a63 63 0 01-.5-4.3 84.8 84.8 0 004.5 2.6zm-6.1-5.7a61 61 0 01-3.5-2.5c1.1-.9 2.2-1.7 3.5-2.5a74.7 74.7 0 000 5zm1.7-8.1l.5-4.3 4 1.7a74.3 74.3 0 00-4.5 2.6zm8-2.6l4-1.7.4 4.3a77 77 0 00-4.4-2.6zm6.2 5.7l3.4 2.5a62 62 0 01-3.4 2.5 75.7 75.7 0 000-5zM24 1.6c2 0 4.2 4.2 5.5 11-1.8.6-3.7 1.4-5.5 2.3a67 67 0 00-5.4-2.4C19.8 5.8 22 1.6 24 1.6zM8 19.6c-2.8-3-4-5.5-3.3-6.8.5-.8 1.6-1.2 3.4-1.2 3 .2 6 .8 8.8 2-.3 1.8-.5 3.8-.6 5.9a64.2 64.2 0 00-4.8 3.5 40 40 0 01-3.5-3.3zM4.6 35.3c-.7-1.3.5-3.9 3.3-6.9a40 40 0 013.5-3.3 64 64 0 004.8 3.5c0 2 .3 4 .6 6-6.5 2.3-11.2 2.5-12.2.7zM24 46.4c-2 0-4.2-4.2-5.4-11 1.8-.6 3.6-1.4 5.4-2.3 1.8.9 3.7 1.7 5.5 2.4-1.3 6.7-3.4 10.9-5.5 10.9zm19.4-11.2c-1 1.8-5.7 1.6-12.1-.7l.6-6c1.7-1.1 3.3-2.3 4.8-3.5a40 40 0 013.5 3.3c2.8 3 4 5.6 3.2 6.9z"/>
  <defs>
    <linearGradient id="paint0_linear" x1="24" x2="24" y1="47.6" y2="-2.6" gradientUnits="userSpaceOnUse">
      <stop stop-color="#006DF0"/>
      <stop offset="1" stop-color="#00E7F0"/>
    </linearGradient>
    <linearGradient id="paint1_linear" x1="24" x2="24" y1="47.6" y2="-2.6" gradientUnits="userSpaceOnUse">
      <stop stop-color="#006DF0"/>
      <stop offset="1" stop-color="#00E7F0"/>
    </linearGradient>
  </defs>
</svg>
