<?xml version="1.0" standalone="no"?>
<!DOCTYPE svg PUBLIC "-//W3C//DTD SVG 20010904//EN"
 "http://www.w3.org/TR/2001/REC-SVG-20010904/DTD/svg10.dtd">
<svg version="1.0" xmlns="http://www.w3.org/2000/svg"
 width="554.000000pt" height="554.000000pt" viewBox="0 0 554.000000 554.000000"
 preserveAspectRatio="xMidYMid meet">
<metadata>
Created by potrace 1.11, written by Peter Selinger 2001-2013
</metadata>
<g transform="translate(0.000000,554.000000) scale(0.100000,-0.100000)"
fill="#000000" stroke="none">
<path d="M2559 5485 c-2 -2 -37 -6 -77 -10 -41 -3 -83 -8 -95 -11 -12 -2 -42
-7 -67 -10 -39 -5 -82 -13 -155 -30 -11 -3 -31 -7 -45 -9 -14 -3 -50 -11 -80
-20 -30 -9 -62 -18 -70 -20 -181 -46 -446 -166 -688 -310 -195 -117 -465 -349
-622 -535 -30 -36 -58 -67 -61 -70 -3 -3 -34 -43 -68 -90 -33 -47 -65 -90 -70
-96 -21 -25 -141 -232 -141 -242 0 -5 -3 -12 -8 -14 -26 -11 -173 -372 -207
-508 -2 -8 -4 -15 -5 -15 -1 0 -3 -7 -5 -15 -2 -8 -6 -25 -9 -37 -64 -256 -81
-403 -81 -678 1 -220 5 -275 40 -492 1 -11 6 -30 10 -42 3 -11 8 -31 10 -43
15 -79 85 -315 114 -383 5 -11 16 -36 24 -55 29 -68 59 -135 71 -160 17 -34
79 -148 91 -168 62 -103 90 -148 95 -152 3 -3 16 -21 28 -40 12 -19 33 -48 47
-64 14 -16 25 -32 25 -36 0 -3 8 -15 18 -26 10 -10 45 -50 77 -89 68 -80 243
-255 300 -300 21 -16 46 -37 54 -46 32 -31 169 -128 278 -197 104 -64 256
-144 395 -206 56 -25 287 -102 378 -126 25 -6 61 -16 80 -21 50 -13 252 -47
335 -56 90 -9 500 -9 585 0 36 4 90 12 120 17 30 5 69 11 85 13 17 2 36 7 43
11 7 4 12 5 12 3 0 -3 17 -1 38 4 20 5 48 12 62 15 66 13 294 83 345 104 11 5
49 21 85 36 87 35 209 94 240 115 14 9 27 17 30 17 17 0 309 187 356 228 12
11 39 33 60 49 114 89 254 227 396 392 164 190 373 560 448 793 5 14 17 49 28
78 11 28 19 52 16 52 -2 0 1 12 7 27 6 16 13 36 15 46 2 9 6 27 10 40 3 12 7
33 10 47 3 14 9 41 14 60 10 39 18 78 25 130 3 19 7 44 10 55 12 61 20 203 19
380 0 221 -8 316 -39 485 -3 14 -7 39 -10 55 -20 108 -100 368 -146 473 -50
115 -96 211 -126 262 -17 30 -31 57 -31 60 1 11 -163 250 -222 325 -121 152
-283 316 -413 421 -45 36 -91 72 -101 81 -32 26 -247 166 -301 195 -127 70
-409 198 -436 198 -4 0 -20 5 -36 12 -15 6 -33 12 -40 14 -7 1 -43 11 -80 23
-123 37 -250 65 -348 76 -11 1 -31 5 -45 8 -14 4 -52 9 -85 13 -68 6 -511 15
-516 9z"/>
</g>
</svg>
