<svg xmlns="http://www.w3.org/2000/svg" fill="none" viewBox="0 0 48 48">
  <defs/>
  <g clip-path="url(#clip0)">
    <path fill="#004284" d="M45 17v18.7a24 24 0 01-3.3 4.5l-12.5 7.2a24 24 0 01-10.4 0l-10.3-6-2.2-1.2A24 24 0 013 35.7V17c0-1.9 1-3.6 2.6-4.5l15.8-9.1c1.6-1 3.6-1 5.2 0l12.6 7.3 3.2 1.8c1.6 1 2.6 2.6 2.6 4.5z"/>
    <path fill="#6399D4" d="M44.3 14.6l-40 23c-.5-.6-.9-1.2-1.3-2V17.2c0-1.9 1-3.6 2.6-4.5l15.8-9.1c1.6-1 3.6-1 5.2 0l12.6 7.3 3.2 1.8c.8.5 1.5 1.2 2 2z"/>
    <path fill="#00579E" d="M45 17v18.7a24 24 0 01-1.2 1.9L24 26.2l20.2-11.6c.4.7.7 1.6.7 2.5z"/>
    <path fill="#F2F2F2" d="M30.2 29.7a7 7 0 11-.1-7l6.2-3.5a14.2 14.2 0 100 14.1l-6.1-3.6z"/>
    <path fill="#F2F2F2" d="M38 25.3h-1.7v-1.6h-1.5v1.6h-1.6v1.6h1.6v1.6h1.5v-1.6H38v-1.6zM43.8 25.3h-1.6v-1.6h-1.5v1.6H39v1.6h1.7v1.6h1.5v-1.6h1.6v-1.6z"/>
  </g>
  <defs>
    <clipPath id="clip0">
      <path fill="#fff" d="M0 0h48v48H0z"/>
    </clipPath>
  </defs>
</svg>
