<svg xmlns="http://www.w3.org/2000/svg" fill="none" viewBox="0 0 48 48">
  <defs/>
  <path fill="#8C50D7" d="M24 48a24 24 0 100-48 24 24 0 000 48z"/>
  <path fill="#733CB9" d="M28.9 43.1A24 24 0 019.6 4.8a24 24 0 1033.6 33.6c-4 3-9 4.7-14.3 4.7z"/>
  <path fill="#AA6EFF" d="M27.6 7.5h-.4A17 17 0 0024 7a1.8 1.8 0 010-3.5c1.3 0 2.6 0 3.9.3a1.8 1.8 0 01-.3 3.6zM42.5 23.1c-.9 0-1.7-.6-1.8-1.5-.7-5-3.6-9.4-8-12a1.8 1.8 0 111.8-3.1c5.3 3.2 8.9 8.5 9.7 14.6a1.8 1.8 0 01-1.7 2z"/>
  <path fill="#fff" d="M35.6 23.3a1.1 1.1 0 100-2.2h-1l.3-1.3a1.1 1.1 0 10-2.2-.5l-.4 1.8h-2.1l.2-1.3a1.1 1.1 0 10-2.2-.5l-.3 1.8h-1.2a1.1 1.1 0 100 2.2h.7l-.2 1.4h-1.4a1.1 1.1 0 000 2.2h1l-.3 1.3a1.1 1.1 0 102.1.5l.4-1.8h2.2l-.3 1.3a1.1 1.1 0 102.2.5l.3-1.8h1.3a1.1 1.1 0 100-2.2h-.8l.3-1.4h1.4zm-4 1.4h-2.2l.3-1.4H32l-.3 1.4zM18.7 18c1 0 2 .3 2.9 1a1.1 1.1 0 101.3-1.9 7.3 7.3 0 00-11.5 6V25a7.3 7.3 0 0011.5 6 1.1 1.1 0 00-1.3-1.8 5.1 5.1 0 01-8-4.2V23c0-2.8 2.2-5.1 5-5.1z"/>
</svg>
