<svg xmlns="http://www.w3.org/2000/svg" fill="none" viewBox="0 0 48 48">
  <defs/>
  <path fill="#F2F2F2" d="M48 24a24 24 0 11-48 0 24 24 0 0148 0z"/>
  <path fill="#006BC0" d="M41.4 11.2L38.7 43a23.9 23.9 0 01-29.4 0L6.6 11.2h34.8z"/>
  <path fill="#0096DC" d="M24 14.2v33.2L35.5 44l2.5-30H24z"/>
  <path fill="#fff" d="M34.1 27.2H26l8.6-4.4.4-4.4H13l.4 4.5h8.7L14 27l.4 4.7h14.9l-.5 5.5-4.7 1.2-4.9-1.3-.1-3.5h-4.6l.6 6.8 9 2.5 9-2.5 1.1-13.2z"/>
  <path fill="#222123" d="M15.5 6.3V3.2H20V1.5H14V8H20V6.3h-4.5zM22.6 4v-.8h4.5V1.5H21v4h4.4v.8H21V8H27V4h-4.5zM29.6 4v-.8h4.5V1.5H28v4h4.4v.8H28V8H34V4h-4.5z"/>
</svg>
