<svg xmlns="http://www.w3.org/2000/svg" fill="none" viewBox="0 0 48 48">
  <defs/>
  <g fill="#5C6BC0" clip-path="url(#clip0)">
    <path d="M7.2 42.4h28.5L34.3 38 46 48V5c-.1-2.7-2.4-5-5.3-5H7.2A5.1 5.1 0 002 5v32.4a5 5 0 005.2 5zm21-31zM13 13.9c3.7-2.7 7-2.5 7-2.5l.3.2c-4.5 1.1-6.5 3.1-6.5 3.1.2 0 9.3-5.3 20.3.1 0 0-2-1.8-6.3-3l.4-.4c.6 0 3.6.1 7 2.5 0 0 3.6 6.3 3.6 14-.1 0-2.3 3.4-7.8 3.5 0 0-1-1-1.7-2a8 8 0 004.5-2.8c-6.3 4-11.9 3.4-18.5.7H15v-.1h-.2l-.7-.5a8 8 0 004.4 2.9c-.9.9-1.7 2-1.7 2-5.5-.2-7.6-3.7-7.6-3.7 0-7.7 3.7-14 3.7-14z"/>
    <path d="M28.6 25.5c1.4 0 2.6-1.2 2.6-2.6 0-1.5-1.2-2.7-2.6-2.7a2.6 2.6 0 00-2.6 2.7c0 1.4 1.2 2.6 2.6 2.6zM19.4 25.5c1.4 0 2.6-1.2 2.6-2.6 0-1.5-1.2-2.7-2.6-2.7a2.6 2.6 0 00-2.6 2.7c0 1.4 1.2 2.6 2.6 2.6z"/>
  </g>
  <defs>
    <clipPath id="clip0">
      <path fill="#fff" d="M0 0h48v48H0z"/>
    </clipPath>
  </defs>
</svg>
