<svg xmlns="http://www.w3.org/2000/svg" fill="none" viewBox="0 0 82 20">
  <defs/>
  <path fill="#3B4854" d="M25.4 19.2v-18h1v2.9l.3-.4A4.8 4.8 0 0131.1 1c2.2-.1 4 .7 5.1 2.7a8.8 8.8 0 01.2 8c-1 2.2-3.4 3.3-6 3a4.9 4.9 0 01-4-2.6v7.1h-1zm1-11.6l.2 2.1c.4 2.4 1.8 3.8 4 4a4.6 4.6 0 005-2.8 7.8 7.8 0 000-6.4 4.5 4.5 0 00-4.8-2.6 4.4 4.4 0 00-4 3.2l-.4 2.5zM57.2 10a5.2 5.2 0 01-5.2 4.7c-4 .2-6-2.5-6.3-5.7a9 9 0 01.8-5 5.5 5.5 0 015.8-3A5.3 5.3 0 0157 5l.5 3H46.7c-.2 2.8 1.4 5.1 3.5 5.7 2.7.6 5-.5 5.8-3.1.2-.7.6-.7 1.2-.6zM46.7 7h9.6c0-3-2-5.1-4.5-5.1-2.9 0-5 2-5 5.2zM59.1 10.1h1a3.8 3.8 0 002.2 3.3 5.8 5.8 0 005-.2 2.3 2.3 0 001.3-2.2 2 2 0 00-1.3-2L64 8c-1.1-.3-2.2-.7-3.2-1.2-1.7-.8-1.8-4 0-5a6.8 6.8 0 016.5-.1A3.4 3.4 0 0169.2 5h-.8-.1c-.1-2.6-2.3-3.4-4.6-3.2a6 6 0 00-2 .6 2 2 0 00-1.1 2 2 2 0 001.3 1.8l3.1 1 2.6.6a3 3 0 012 2.7 3.2 3.2 0 01-1.7 3.3c-2.2 1.3-5.9 1-7.5-.6a4.4 4.4 0 01-1.3-3.2zM81.5 5.1h-.8l-.1-.3a2.9 2.9 0 00-2.3-2.7 5.8 5.8 0 00-3.8.1 2.3 2.3 0 00-1.2 3.5c.3.4.7.7 1.2.8l4 1 1.3.4a3.3 3.3 0 01.2 6.2 7.4 7.4 0 01-6 0 4.1 4.1 0 01-2.5-4h.9a4.8 4.8 0 007.3 3A2.4 2.4 0 0081 11a2 2 0 00-1.4-2l-3.2-1L73.2 7c-1.7-.9-1.8-4 .1-5a6.7 6.7 0 016.6-.2 3.5 3.5 0 011.6 3.4zM23.8 14.4a1.5 1.5 0 01-1.9-.8c-1-1.6-2.2-3.1-3.4-4.7l-.5-.7-4 5.4a1.5 1.5 0 01-1.7.7l5-6.8-4.7-6.2a1.6 1.6 0 012 .6c1 1.6 2.2 3.2 3.5 4.8L21.6 2a1.4 1.4 0 011.8-.7l-1.8 2.4L19 7a.7.7 0 000 1l4.7 6.4zM45.6 1.2v1A4.8 4.8 0 0040.5 7v7.3h-1V1.3h1v2.6c1-2 2.9-2.6 5-2.7zM0 7.4l.4-2C1.6 1.2 6.2-.5 9.4 2c2 1.5 2.4 3.6 2.3 6H1.1C1 12.1 4 14.7 8 13.4a4 4 0 002.5-2.9c.2-.6.6-.8 1.2-.6A5.4 5.4 0 019 14a6.2 6.2 0 01-7.2-1C.8 12 .2 10.6 0 9.2v-.7L0 7.4zM1.1 7h9.6c0-3-2-5.2-4.6-5.2-2.8 0-4.9 2-5 5.2z"/>
</svg>
