<svg xmlns="http://www.w3.org/2000/svg" fill="none" viewBox="0 0 277 272">
  <defs/>
  <g clip-path="url(#clip0)">
    <path fill="#5850EC" d="M277 136c0 18.4-3.8 36.6-11.2 53.6l-.4 1a137.2 137.2 0 01-61.5 65.3 141 141 0 01-123.5 3.6 138 138 0 01-58.6-50.2A134.4 134.4 0 010 136C0 60.9 62 0 138.5 0S277 60.9 277 136z"/>
    <path fill="#000" d="M114.5 270l-2.5-.5c-.6-15.4-2.4-47-8.8-80.2A293.3 293.3 0 0088.3 136c-2.3-5.8-4.9-11.4-7.8-16.9-6.7-12.4-15-23-24.8-30l1.4-2c8.3 5.9 15.7 14.2 22.3 25a133.7 133.7 0 0111.2 22.6l3.3 8.7a309.2 309.2 0 0113.7 55.5c5 29.7 6.4 57.2 6.9 71zM83 260.6l-2.6-1.1c-.9-9.2-2.5-20.5-5.3-31.2-1.3-4.9-3-9.6-4.9-14.2-3.3-7.6-7.5-14-13-18l1.4-1.9a44.5 44.5 0 0113.7 18.3 124 124 0 018.1 28.3c1.3 7.1 2.1 14 2.6 19.8zM41.9 89c6.8 0 12.3-5.5 12.3-12.2 0-6.6-5.5-12-12.3-12-6.8 0-12.3 5.4-12.3 12C29.6 83.5 35 89 41.9 89zM45.9 193.2c6.8 0 12.3-5.5 12.3-12.1 0-6.7-5.5-12.1-12.3-12.1-6.8 0-12.4 5.4-12.4 12 0 6.7 5.6 12.2 12.4 12.2zM90.9 97.2c-2.7 14.5 3.1 27.6 3.1 27.6s10-10.4 12.6-24.9c2.6-14.5-3.1-27.6-3.1-27.6s-10 10.4-12.6 24.9z" opacity=".2"/>
    <path fill="#000" d="M49.9 131.6c14 5 28.2 1.8 28.2 1.8s-8.7-11.5-22.8-16.5c-14-5-28.2-1.8-28.2-1.8s8.7 11.4 22.8 16.5zM47.5 223.8c9.9 3.6 19.8 1.3 19.8 1.3s-6-8-16-11.6c-9.8-3.6-19.7-1.2-19.7-1.2s6 8 15.9 11.5z" opacity=".2"/>
    <path fill="#D0CDE1" d="M138.2 166.1c29.8 0 54-23.7 54-53s-24.2-53-54-53-54 23.7-54 53 24.2 53 54 53z"/>
    <path fill="#D0CDE1" d="M117.1 153.7s6.8 31.5 6.8 34.8c0 3.3 32 18.2 32 18.2l28.7-5 10.1-29.8S178 147.1 178 137.1L117 153.7z"/>
    <path fill="#2F2E41" d="M265.8 189.6l-.4 1a137.2 137.2 0 01-61.5 65.3 141 141 0 01-146.2-9.4l-6.4-18.2 3.6-2.7 7.4-5.6 8-6 2-1.5 31-23.2 2.2-1.7 16.1-12s17.5 27.8 42.8 19.5c25.3-8.3 24.7-32 24.7-32l76.7 26.5zM91.4 70.4s17.1-36.5 50-28c32.8 8.3 51.4 21 52.8 33.6 1.5 12.6-.7 31.6-.7 31.6s-3.5-26-26.4-20.4c-22.8 5.6-58.6 1.4-58.6 1.4l-5.7 50.5s-6.4-9.1-13.6-3.5c-7 5.6-20.7-54 2.2-65.2z"/>
    <path fill="#2F2E41" d="M87 262.3a141 141 0 01-42.5-26.4c3.7-5 6.8-7.6 6.8-7.6h25.3l3.8 12.5 6.5 21.5zM243.7 186.8l21.7 3.8c-5.8 13-13.7 25-23.3 35.6l1.6-39.4z"/>
  </g>
  <defs>
    <clipPath id="clip0">
      <path fill="#fff" d="M0 0h277v272H0z"/>
    </clipPath>
  </defs>
</svg>
