<svg xmlns="http://www.w3.org/2000/svg" fill="none" viewBox="0 0 48 48">
  <defs/>
  <g clip-path="url(#clip0)">
    <path fill="#FFC107" d="M10 21v7h2c2 0 3.7 1 4.8 2.5A9 9 0 0123 28h2a9 9 0 016.2 2.5 6 6 0 016.8-2.1V21H10z"/>
    <path fill="#FFD54F" d="M24 26c-1.4 0-14-.1-14-5v-8h28v8c0 4.9-12.6 5-14 5z"/>
    <path fill="#FFC107" d="M24 18c-1.4 0-14-.1-14-5V5h28v8c0 4.9-12.6 5-14 5z"/>
    <path fill="#FFD54F" d="M24 10c-1.4 0-14-.1-14-5s12.6-5 14-5c1.4 0 14 .1 14 5s-12.6 5-14 5z"/>
    <path fill="#DEA806" d="M10 21v7h2c2 0 3.7 1 4.8 2.5A9 9 0 0123 28h1v-2c-1.4 0-14-.1-14-5z"/>
    <path fill="#DEB945" d="M10 13v8c0 4.9 12.6 5 14 5v-8c-1.4 0-14-.1-14-5z"/>
    <path fill="#DEA806" d="M10 5v8c0 4.9 12.6 5 14 5v-8c-1.4 0-14-.1-14-5z"/>
    <path fill="#DEB945" d="M24 0c-1.4 0-14 .1-14 5s12.6 5 14 5V0z"/>
    <path fill="#2196F3" d="M30 37a5 5 0 00-5-5h-2a5 5 0 00-5 5v6a5 5 0 005 5h2a5 5 0 001.9-.4c.3.3.7.4 1.1.4.5 0 1-.2 1.4-.6a2 2 0 00.2-2.5A5 5 0 0030 43v-6zm-8 6v-6c0-.6.4-1 1-1h2c.6 0 1 .4 1 1v4.3a2 2 0 00-2.4.3 2 2 0 00-.3 2.4H23a1 1 0 01-1-1zM42 48h-6a2 2 0 01-2-2V34a2 2 0 114 0v10h4a2 2 0 110 4zM9 48H6a2 2 0 110-4h3a1 1 0 000-2 5 5 0 010-10h3a2 2 0 110 4H9a1 1 0 000 2 5 5 0 010 10z"/>
    <path fill="#1D83D4" d="M30 40.1h-4v1.2a2 2 0 00-1-.3 2 2 0 00-1.4.6 2 2 0 00-.3 2.4H23a1 1 0 01-1-1v-2.9h-4V43a5 5 0 005 5h2a5 5 0 001.9-.4c.3.3.7.4 1.1.4.5 0 1-.2 1.4-.6a2 2 0 00.2-2.5A5 5 0 0030 43v-2.9zM38 40.1h-4V46c0 1.1.9 2 2 2h6a2 2 0 100-4h-4v-3.9zM13 40.1H5.2A5 5 0 009 42a1 1 0 010 2H6a2 2 0 100 4h3a5 5 0 004-7.9z"/>
  </g>
  <defs>
    <clipPath id="clip0">
      <path fill="#fff" d="M0 0h48v48H0z"/>
    </clipPath>
  </defs>
</svg>
